<?xml version="1.0" encoding="utf-8"?>
<svg version="1.1" id="_x3C_Layer_x3E_" xmlns="http://www.w3.org/2000/svg" xmlns:xlink="http://www.w3.org/1999/xlink" x="0px"
	 y="0px" viewBox="0 0 2848 1780" style="enable-background:new 0 0 2848 1780;" xml:space="preserve">
<rect style="fill: none;stroke: none;" width="2848" height="1780"/>
<g>
	<path style="fill:#FCECDB;" d="M2663.33,1398.359H229.037c0,0-2.106-20.108-2.727-52.571c-0.359-18.905-0.223-42.021,1.135-67.798
		c0.117-2.105,0.233-4.241,0.359-6.387c0.709-11.82,1.67-24.164,2.96-36.888c0.117-1.126,0.233-2.251,0.359-3.387
		c1.397-13.305,3.154-27.125,5.338-41.322c1.776-11.55,3.823-23.351,6.211-35.336c0.165-0.844,0.34-1.688,0.515-2.533
		c1.232-6.104,2.562-12.247,3.969-18.439c0.553-2.426,1.116-4.862,1.698-7.297c1.136-4.766,2.319-9.551,3.571-14.345
		c3.028-11.733,6.405-23.563,10.151-35.423c0.378-1.202,0.767-2.426,1.145-3.648c1.708-5.29,3.484-10.588,5.338-15.887
		c2.824-8.074,5.832-16.149,9.025-24.204c1.999-5.057,4.086-10.103,6.24-15.14c67.177-157.111,209.392-303.276,506.359-300.336
		c638.054,6.328,589.084-339.853,1035.72-362.01c181.898-9.025,292.805,154.326,260.09,387.699
		C2031.166,1137.891,2655.227,851.695,2663.33,1398.359z"/>
	<g>
		<path style="fill:#233862;" d="M1977.465,1394.661c0,0,0-11.496,1.639-15.319c1.639-3.822,7.646-19.387,7.646-19.387h23.482
			c0,0,4.369,14.199,4.643,18.841c0.272,4.643,0,15.865,0,15.865H1977.465z"/>
		<path style="fill:#233862;" d="M2126.568,1394.661c0,0,0-11.496-1.639-15.319c-1.639-3.822-7.646-19.387-7.646-19.387h-23.483
			c0,0-4.369,14.199-4.643,18.841c-0.272,4.643,0,15.865,0,15.865H2126.568z"/>
		<path style="fill:#FFB27D;" d="M2032.487,749.385c0,0-0.827,25.6-4.104,37.069l-25.933,18.09l97.62,14.608l-23.281-32.166
			c0,0-7.029-34.324-3.342-47.022C2077.133,727.268,2032.487,749.385,2032.487,749.385z"/>
		<path style="fill:#ED985F;" d="M2032.346,752.921c0-0.008,7.719,18.582,22.26,18.173c14.54-0.409,17.85-16.852,17.85-16.852
			L2032.346,752.921z"/>
		<path style="fill:#2C3A64;" d="M2023.667,737.874c0,0-4.696-23.44-7.974-30.54c-3.276-7.101-6.008-38.775,30.311-40.414
			c0,0,13.926,1.639,21.572-3.004c0,0,0,4.643-1.911,6.281c0,0,12.561-3.004,22.391,7.918c9.83,10.924-6.552,49.152-5.733,58.163
			L2023.667,737.874z"/>
		<path style="fill:#FFB27D;" d="M2052.939,763.913c-10.535-0.186-29.928-14.215-29.928-31.588v-27.109
			c0-6.345,4.423-11.535,9.83-11.535h40.195c5.406,0,9.83,5.19,9.83,11.535v25.575
			C2082.867,749.008,2065.022,764.126,2052.939,763.913z"/>
		<path style="fill:#2C3A64;" d="M2023.012,719.69c0,0,0.055-16.29,12.957-18.795s41.779,7.94,45.875-3.939
			c4.096-11.878-55.816-11.673-58.832-4.096C2019.995,700.438,2023.012,719.69,2023.012,719.69z"/>
		<path style="fill:#B64C41;" d="M1980.408,996.519c0,0,4.109,125.464-2.035,197.05c-6.143,71.587,0.045,171.212,0.045,171.212
			s19.648,10.834,40.947,0c0,0,23.358-138.298,23.211-171.212c-0.157-35.052,25.424-191.58,25.424-191.58L1980.408,996.519z"/>
		<path style="fill:#B64C41;" d="M2125.72,1364.776c0,0-19.645,10.839-40.943,0c0,0-23.355-138.296-23.208-171.21
			c0.066-14.803-4.456-51.282-9.707-88.473c-7.185-50.88-15.721-103.104-15.721-103.104l90.988-5.684
			c0,0-7.504,125.681-1.36,197.261C2131.912,1265.155,2125.72,1364.776,2125.72,1364.776z"/>
		<path style="fill:#739AF0;" d="M2126.039,1017.392c0,0-38.789,7.511-74.178,7.511c-15.434,0-32.203-1.694-45.555-3.48
			c-14.762-1.958-25.347-4.03-25.347-4.03s-7.864,0.688-3.22-38.085c3.531-29.506,2.426-56.146,1.639-83.557
			c-0.09-3.047-0.024-6.652,0.164-10.666c1.508-31.956,11.174-89.488,18.538-92.576c0,0,10.953-4.072,30.302-6.054
			c0,0.376,11.231,16.794,24.561,18.636c8.281-3.276,14.785-6.069,23.846-18.103c11.477,1.335,23.994,3.611,37.38,7.208
			c0,0,1.393,6.096,6.651,111.836C2122.909,947.916,2137.205,1017.531,2126.039,1017.392z"/>
		<path style="fill:#AA413E;" d="M2061.568,1193.566c0.066-14.803-4.456-51.282-9.707-88.473
			c5.447-22.217,18.719-43.598,18.719-43.598C2087.373,1108.6,2061.568,1193.566,2061.568,1193.566z"/>
		<path style="fill:#2B478B;" d="M1943.531,918.376c-0.926,0.77,2.303,8.765,7.053,19.185c9.781,21.406,26.025,53.02,26.025,53.02
			c-2.35,8.92-4.931,14.434-4.931,14.434c-27.327-21.472-44.948-39.739-56.196-53.747c-15.811-19.702-19.055-30.999-19.055-30.999
			c60.85-123.861,103.674-128.427,103.674-128.427l-5.059,81.857C1995.043,873.697,1946.35,916.033,1943.531,918.376z"/>
		<path style="fill:#2B478B;" d="M2136.916,1049.768c-9.07,18.151-43.274,17.496-43.274,17.496
			c-6.28-48.226-7.671-279.036-7.671-279.036c11.57,1.391,26.947,5.536,26.947,5.536c11.108,21.481,15.043,61.709,16.008,90.057
			c0.532,15.874,0.142,28.019-0.443,31.066c-0.867,4.526,0.23,26.098,1.896,50.707
			C2132.966,1003.986,2136.916,1049.768,2136.916,1049.768z"/>
		<path style="fill:#2B478B;" d="M2019.387,787.596c0,0-2.292,231.438-8.57,279.665c0,0-34.197,0.655-43.271-17.49
			c0,0,14.049-142.432,11.833-154.021c-1.543-8.076,2.463-74.463,17.248-102.988
			C1996.627,792.762,2009.565,788.752,2019.387,787.596z"/>
		<path style="fill:#FFB27D;" d="M1973.369,992.139c0,0,14.746-13.653,20.753-6.008c6.007,7.646,7.1,19.66,2.457,18.842
			c-4.642-0.82-14.198-5.188-15.564-3.004c-1.365,2.183-7.482,6.36-9.339,3.044
			C1969.819,1001.695,1973.369,992.139,1973.369,992.139z"/>
		<path style="fill:#FFB27D;" d="M1976.609,990.58c-2.35,8.92-4.931,14.434-4.931,14.434
			c-27.327-21.472-44.948-39.739-56.196-53.747c8.479-0.631,20.857-3.662,35.102-13.706
			C1960.365,958.967,1976.609,990.58,1976.609,990.58z"/>
		<path style="fill:#2B478B;" d="M2211.627,920.268c0,0-3.243,11.297-19.054,30.999c-11.247,14.008-28.868,32.275-56.196,53.747
			c0,0-2.58-5.514-4.932-14.434c0,0,16.244-31.613,26.025-53.02c4.751-10.42,7.979-18.415,7.054-19.185
			c-2.188-1.818-31.933-27.664-45.203-39.189c-3.851-3.351-6.308-5.489-6.308-5.489l-3.039-80.642
			C2109.975,793.056,2150.779,796.406,2211.627,920.268z"/>
		<path style="fill:#FFB27D;" d="M2134.684,992.139c0,0-14.745-13.653-20.753-6.008c-6.007,7.646-7.099,19.66-2.458,18.842
			c4.643-0.82,14.2-5.188,15.565-3.004c1.365,2.183,7.482,6.36,9.339,3.044C2138.233,1001.695,2134.684,992.139,2134.684,992.139z"
			/>
		<path style="fill:#FFB27D;" d="M2131.442,990.58c2.352,8.92,4.932,14.434,4.932,14.434c27.328-21.472,44.949-39.739,56.196-53.747
			c-8.479-0.631-20.856-3.662-35.103-13.706C2147.688,958.967,2131.442,990.58,2131.442,990.58z"/>
		<path style="fill:#233862;" d="M2164.524,918.376c-2.188-1.818-31.933-27.664-45.203-39.189c0,0,13.246-9.93,21.438,4.546
			C2148.952,898.207,2164.524,918.376,2164.524,918.376z"/>
		<path style="fill:#233862;" d="M2211.627,920.268c0,0-3.243,11.297-19.054,30.999
			C2174.272,951.013,2211.627,920.268,2211.627,920.268z"/>
		<g>
			<g>
				<path style="fill:#B64C41;" d="M2039.291,731.111c-3.848,0-11.549-0.855-12.896-7.544c-0.41-2.024-0.027-3.825,1.103-5.205
					c1.245-1.521,3.299-2.393,5.634-2.393h11.834c2.25,0,3.824,0.646,4.673,1.922c1.43,2.148,0.333,5.372-0.205,6.658
					c-1.842,4.401-4.378,6.456-7.979,6.465C2041.301,731.03,2040.479,731.111,2039.291,731.111z M2033.131,716.746
					c-2.102,0-3.935,0.768-5.031,2.107c-0.978,1.195-1.304,2.771-0.943,4.56c0.691,3.432,3.27,5.625,7.664,6.518
					c3.344,0.681,6.532,0.31,6.564,0.307l0.047-0.003c3.26,0,5.573-1.902,7.283-5.986c0.382-0.914,1.53-4.04,0.274-5.927
					c-0.696-1.045-2.05-1.576-4.024-1.576H2033.131z"/>
			</g>
			<g>
				<path style="fill:#B64C41;" d="M2066.587,731.111c-1.188,0-2.009-0.081-2.161-0.098c-3.602-0.009-6.137-2.063-7.979-6.465
					c-0.539-1.286-1.636-4.51-0.207-6.658c0.851-1.275,2.423-1.922,4.673-1.922h11.835c2.335,0,4.389,0.872,5.633,2.393
					c1.131,1.38,1.513,3.181,1.104,5.206C2078.138,730.256,2070.436,731.111,2066.587,731.111z M2060.913,716.746
					c-1.974,0-3.327,0.531-4.023,1.576c-1.256,1.887-0.107,5.013,0.274,5.927c1.71,4.084,4.023,5.986,7.283,5.986l0.046,0.003
					c0.033,0.003,3.22,0.373,6.565-0.307c4.395-0.893,6.973-3.087,7.663-6.517c0.36-1.789,0.035-3.365-0.942-4.561
					c-1.097-1.339-2.931-2.107-5.031-2.107H2060.913z"/>
			</g>
			<g>
				<path style="fill:#B64C41;" d="M2048.7,721.44c-0.176,0-0.345-0.102-0.423-0.271c-0.106-0.234-0.004-0.511,0.229-0.617
					c0.196-0.091,4.835-2.167,8.949,0.012c0.226,0.12,0.313,0.401,0.192,0.63c-0.119,0.228-0.401,0.313-0.629,0.192
					c-3.715-1.966-8.081-0.008-8.125,0.013C2048.831,721.426,2048.766,721.44,2048.7,721.44z"/>
			</g>
		</g>
		<path style="fill:#233862;" d="M2130.379,965.594c-19.383-54.64-11.056-86.407-11.056-86.407l9.603,4.634
			c0.532,15.874,0.142,28.019-0.443,31.066C2127.615,919.413,2128.713,940.984,2130.379,965.594z"/>
	</g>
	<g>
		<path style="fill:#2C3A64;" d="M1214.669,732.325c0,0-22.859-41.461-1.894-59.769c20.965-18.308,57.876-7.382,64.668,0
			c6.791,7.383,15.836,28.377-2.918,58.234L1214.669,732.325z"/>
		<path style="fill:#233862;" d="M1169.123,1394.661c0,0,0-11.496,1.638-15.319c1.639-3.822,7.646-19.387,7.646-19.387h23.483
			c0,0,4.369,14.199,4.642,18.841c0.272,4.643,0,15.865,0,15.865H1169.123z"/>
		<path style="fill:#233862;" d="M1318.226,1394.661c0,0,0-11.496-1.639-15.319c-1.638-3.822-7.646-19.387-7.646-19.387h-23.483
			c0,0-4.369,14.199-4.642,18.841c-0.273,4.643,0,15.865,0,15.865H1318.226z"/>
		<path style="fill:#B56F40;" d="M1224.145,749.385c0,0-0.827,25.6-4.104,37.069l-25.934,18.09l97.621,14.608l-23.282-32.166
			c0,0-7.028-34.324-3.343-47.022C1268.791,727.268,1224.145,749.385,1224.145,749.385z"/>
		<path style="fill:#99592E;" d="M1224.003,752.921c0.001-0.008,7.719,18.582,22.26,18.173c14.54-0.409,17.851-16.852,17.851-16.852
			L1224.003,752.921z"/>
		<path style="fill:#B56F40;" d="M1264.695,693.681h-40.196c-5.407,0-9.83,5.19-9.83,11.534v27.11
			c0,17.373,19.392,31.402,29.929,31.588c12.082,0.213,29.928-14.905,29.928-33.122v-25.576
			C1274.525,698.871,1270.102,693.681,1264.695,693.681z"/>
		<path style="fill:#EE9849;" d="M1172.065,996.519c0,0,4.109,125.464-2.034,197.05c-6.145,71.587,0.044,171.212,0.044,171.212
			s19.648,10.834,40.948,0c0,0,23.357-138.298,23.21-171.212c-0.157-35.052,25.425-191.58,25.425-191.58L1172.065,996.519z"/>
		<path style="fill:#EE9849;" d="M1317.377,1364.776c0,0-19.645,10.839-40.943,0c0,0-23.355-138.296-23.207-171.21
			c0.065-14.803-4.457-51.282-9.708-88.473c-7.185-50.88-15.72-103.104-15.72-103.104l90.986-5.684c0,0-7.503,125.681-1.359,197.261
			C1323.57,1265.155,1317.377,1364.776,1317.377,1364.776z"/>
		<path style="fill:#74ACBE;" d="M1301.632,793.056l0.002,0.055c-11.811-2.973-22.919-4.93-33.188-6.124
			c-9.06,12.034-15.564,14.827-23.847,18.103c-13.328-1.843-24.559-18.26-24.559-18.636c-14.521,1.487-24.313,4.151-28.295,5.389
			c-0.79,0.094-43.379,5.72-103.66,128.425c0,0,3.243,11.297,19.054,30.999c11.248,14.008,28.869,32.275,56.196,53.747
			c0,0,2.58-5.514,4.932-14.436c0,0-16.244-31.611-26.025-53.018c-4.751-10.42-7.979-18.415-7.054-19.185
			c1.761-1.463,21.413-18.524,35.923-31.131c-0.116,3.151-0.147,6.016-0.074,8.505c0.786,27.41,1.893,54.051-1.639,83.557
			c-4.645,38.773,3.219,38.085,3.219,38.085s10.585,2.072,25.347,4.03c13.353,1.786,30.121,3.48,45.555,3.48
			c35.389,0,74.178-7.511,74.178-7.511c11.166,0.14-3.13-69.476-5.219-111.361c-0.483-9.728-0.934-18.604-1.354-26.719
			c13.34,11.585,42.879,37.252,45.059,39.064c0.926,0.77-2.303,8.765-7.053,19.185c-9.781,21.406-26.025,53.018-26.025,53.018
			c2.35,8.922,4.932,14.436,4.932,14.436c27.327-21.472,44.948-39.739,56.195-53.747c15.811-19.702,19.055-30.999,19.055-30.999
			C1342.436,796.406,1301.632,793.056,1301.632,793.056z"/>
		<path style="fill:#578E9B;" d="M1197.964,1021.422c-14.762-1.958-25.347-4.03-25.347-4.03s-7.863,0.688-3.219-38.085
			c3.531-29.506,2.425-56.146,1.639-83.557c-0.091-3.047-0.025-6.652,0.163-10.666c2.262,3.621,27.46,44.318,34.242,74.563
			C1210.383,981.707,1202.936,1007.692,1197.964,1021.422z"/>
		<path style="fill:#E58638;" d="M1253.227,1193.566c0.065-14.803-4.457-51.282-9.708-88.473
			c5.448-22.217,18.719-43.598,18.719-43.598C1279.031,1108.6,1253.227,1193.566,1253.227,1193.566z"/>
		<path style="fill:#B56F40;" d="M1165.026,992.139c0,0,14.745-13.653,20.753-6.008c6.007,7.646,7.1,19.66,2.458,18.842
			c-4.643-0.82-14.199-5.188-15.565-3.004c-1.365,2.183-7.482,6.36-9.339,3.044
			C1161.477,1001.695,1165.026,992.139,1165.026,992.139z"/>
		<path style="fill:#B56F40;" d="M1168.268,990.58c-2.352,8.92-4.932,14.434-4.932,14.434
			c-27.327-21.472-44.948-39.739-56.196-53.747c8.479-0.631,20.857-3.662,35.103-13.706
			C1152.023,958.967,1168.268,990.58,1168.268,990.58z"/>
		<path style="fill:#B56F40;" d="M1326.342,992.139c0,0-14.746-13.653-20.754-6.008c-6.007,7.646-7.099,19.66-2.457,18.842
			c4.643-0.82,14.199-5.188,15.564-3.004c1.366,2.183,7.482,6.36,9.34,3.044C1329.891,1001.695,1326.342,992.139,1326.342,992.139z"
			/>
		<path style="fill:#B56F40;" d="M1323.1,990.58c2.352,8.92,4.932,14.434,4.932,14.434c27.328-21.472,44.948-39.739,56.197-53.747
			c-8.479-0.631-20.857-3.662-35.104-13.706C1339.344,958.967,1323.1,990.58,1323.1,990.58z"/>
		<path style="fill:#578E9B;" d="M1356.182,918.376c-2.188-1.818-31.932-27.664-45.203-39.189c0,0,13.247-9.93,21.438,4.546
			C1340.609,898.207,1356.182,918.376,1356.182,918.376z"/>
		<path style="fill:#578E9B;" d="M1403.285,920.268c0,0-3.244,11.297-19.055,30.999
			C1365.93,951.013,1403.285,920.268,1403.285,920.268z"/>
		<path style="fill:#2C3A64;" d="M1214.669,716.208c0,0,7.313-22.322,31.273-18.841c23.962,3.481,26.035,8.601,28.583,14.541
			c2.547,5.938,7.461-21.71,7.461-21.71l-28.262-8.396c0,0-34.2,3.89-36.658,9.625c-2.458,5.734-2.458,5.734-2.458,5.734
			L1214.669,716.208z"/>
		<path style="fill:#2C3A64;" d="M1242.637,673.019c0,0-25.322-23.012-14.458-27.928S1242.637,673.019,1242.637,673.019z"/>
		<path style="fill:#2C3A64;" d="M1241.616,673.627c0,0-32.019-12.065-23.729-20.637
			C1226.175,644.417,1241.616,673.627,1241.616,673.627z"/>
		<path style="fill:#2C3A64;" d="M1243.713,674.295c0,0-5.239-29.681,7.415-29.464
			C1263.782,645.047,1243.713,674.295,1243.713,674.295z"/>
		<path style="fill:#2C3A64;" d="M1245.489,672.356c0,0,13.715-31.928,26.481-28.939S1245.489,672.356,1245.489,672.356z"/>
		<path style="fill:#2C3A64;" d="M1244.785,674.295c0,0,21.828-27.037,33.314-20.712
			C1289.584,659.909,1244.785,674.295,1244.785,674.295z"/>
	</g>
	<path style="fill:#82B378;" d="M2618.585,1393.443h-83.977c-4.499-3.817,3.114-12.486,11.07-13.068
		c3.455-0.262,7.825,0.462,12.817,1.517c1.155-15.349,7.755-84.349,32.626-81.575c27.966,3.104,0,30.386-7.905,46.539
		c-5.856,11.963-12.033,29.119-14.856,37.216c2.27,0.492,4.621,0.975,7.021,1.416c3.706-11.38,17.498-49.661,35.037-47.432
		c20.591,2.611,12.314,17.96-2.281,27.07c-10.708,6.7-23.856,16.224-30.104,20.824c5.295,0.863,10.818,1.446,16.424,1.315
		C2608.841,1386.924,2615.863,1391.163,2618.585,1393.443z"/>
	<path style="fill:#82B378;" d="M326.668,1388.837c-5.138-8.071-20.601-29.021-41.197-26.248
		c-22.44,3.021,24.784,17.816,39.242,26.31c-3.211,0.044-5.972-0.213-7.999-0.936c-9.666-3.445-26.219,3.162-31.512,5.48h92.018
		c-0.636-2.201-2.293-5.796-6.579-8.415c-1.511-0.924-4.548-1.052-8.469-0.754c5.472-6.45,9.272-27.055-5.961-21.752
		c-11.127,3.872-11.097,16.462-10.004,23.911c-2.367,0.371-4.769,0.745-7.14,1.087c-4.581-23.349-20.786-91.779-53.629-93.604
		c-33.296-1.85,28.234,70.968,48.722,94.256C331.535,1388.488,329.008,1388.728,326.668,1388.837z"/>
	<g>
		<path style="fill:#233862;" d="M1009.415,1394.661c0,0,0-11.496,1.639-15.319c1.638-3.822,7.646-19.387,7.646-19.387h23.483
			c0,0,4.369,14.199,4.642,18.841c0.273,4.643,0,15.865,0,15.865H1009.415z"/>
		<path style="fill:#233862;" d="M1158.519,1394.661c0,0,0-11.496-1.639-15.319c-1.639-3.822-7.646-19.387-7.646-19.387h-23.482
			c0,0-4.369,14.199-4.644,18.841c-0.272,4.643,0,15.865,0,15.865H1158.519z"/>
		<path style="fill:#FFB27D;" d="M1064.438,749.385c0,0-0.827,25.6-4.105,37.069l-25.932,18.09l97.62,14.608l-23.282-32.166
			c0,0-7.027-34.324-3.342-47.022C1109.082,727.268,1064.438,749.385,1064.438,749.385z"/>
		<path style="fill:#ED985F;" d="M1064.296,752.921c0-0.008,7.719,18.582,22.26,18.173c14.54-0.409,17.849-16.852,17.849-16.852
			L1064.296,752.921z"/>
		<path style="fill:#B64C41;" d="M1055.616,737.874c0,0-4.695-23.44-7.973-30.54c-3.276-7.101-6.007-38.775,30.31-40.414
			c0,0,13.928,1.639,21.572-3.004c0,0,0,4.643-1.911,6.281c0,0,12.562-3.004,22.392,7.918c9.83,10.924-6.552,49.152-5.733,58.163
			L1055.616,737.874z"/>
		<path style="fill:#FFB27D;" d="M1104.987,693.681h-40.196c-5.406,0-9.83,5.19-9.83,11.534v27.11
			c0,17.373,19.393,31.402,29.928,31.588c12.083,0.213,29.929-14.905,29.929-33.122v-25.576
			C1114.817,698.871,1110.394,693.681,1104.987,693.681z"/>
		<path style="fill:#B64C41;" d="M1054.961,719.69c0,0,0.056-16.29,12.957-18.795c12.902-2.505,41.78,7.94,45.875-3.939
			c4.097-11.878-55.816-11.673-58.832-4.096C1051.944,700.438,1054.961,719.69,1054.961,719.69z"/>
		<path style="fill:#2B478B;" d="M1012.358,996.519c0,0,4.108,125.464-2.034,197.05c-6.145,71.587,0.044,171.212,0.044,171.212
			s19.648,10.834,40.948,0c0,0,23.356-138.298,23.209-171.212c-0.157-35.052,25.424-191.58,25.424-191.58L1012.358,996.519z"/>
		<path style="fill:#2B478B;" d="M1157.669,1364.776c0,0-19.644,10.839-40.943,0c0,0-23.354-138.296-23.208-171.21
			c0.066-14.803-4.456-51.282-9.706-88.473c-7.185-50.88-15.722-103.104-15.722-103.104l90.988-5.684
			c0,0-7.503,125.681-1.36,197.261C1163.862,1265.155,1157.669,1364.776,1157.669,1364.776z"/>
		<path style="fill:#27437C;" d="M1038.256,1021.422c-14.762-1.958-25.346-4.03-25.346-4.03s-7.863,0.688-3.219-38.085
			c3.53-29.506,2.425-56.146,1.637-83.557c-0.089-3.047-0.023-6.652,0.165-10.666c2.261,3.621,27.459,44.318,34.242,74.563
			C1050.675,981.707,1043.228,1007.692,1038.256,1021.422z"/>
		<path style="fill:#2F5196;" d="M1141.924,793.056l0.003,0.055c-11.812-2.973-22.919-4.93-33.188-6.124
			c-9.061,12.034-15.564,14.827-23.847,18.103c-13.329-1.843-24.561-18.26-24.561-18.636c-14.52,1.487-24.311,4.151-28.294,5.389
			c-0.792,0.094-43.38,5.723-103.66,128.425c0,0,3.243,11.297,19.055,30.999c11.247,14.008,28.868,32.275,56.196,53.747
			c0,0,2.58-5.514,4.932-14.436c0,0-16.245-31.611-26.025-53.018c-4.752-10.42-7.981-18.415-7.054-19.185
			c1.76-1.463,21.412-18.524,35.922-31.131c-0.116,3.151-0.147,6.016-0.075,8.505c0.788,27.41,1.894,54.051-1.637,83.557
			c-4.645,38.773,3.219,38.085,3.219,38.085s10.584,2.072,25.346,4.03c13.354,1.786,30.121,3.48,45.556,3.48
			c35.389,0,74.178-7.511,74.178-7.511c11.165,0.14-3.13-69.476-5.219-111.361c-0.483-9.728-0.935-18.604-1.355-26.719
			c13.341,11.585,42.88,37.252,45.06,39.064c0.925,0.77-2.303,8.765-7.054,19.185c-9.781,21.406-26.025,53.018-26.025,53.018
			c2.351,8.922,4.931,14.436,4.931,14.436c27.329-21.472,44.949-39.739,56.197-53.747c15.81-19.702,19.055-30.999,19.055-30.999
			C1182.729,796.406,1141.924,793.056,1141.924,793.056z"/>
		<path style="fill:#233862;" d="M1093.518,1193.566c0.066-14.803-4.456-51.282-9.706-88.473
			c5.447-22.217,18.718-43.598,18.718-43.598C1119.322,1108.6,1093.518,1193.566,1093.518,1193.566z"/>
		<path style="fill:#FFB27D;" d="M1005.319,992.139c0,0,14.745-13.653,20.753-6.008c6.007,7.646,7.1,19.66,2.457,18.842
			c-4.642-0.82-14.199-5.188-15.565-3.004c-1.364,2.183-7.482,6.36-9.338,3.044
			C1001.769,1001.695,1005.319,992.139,1005.319,992.139z"/>
		<path style="fill:#FFB27D;" d="M1008.56,990.58c-2.352,8.92-4.932,14.434-4.932,14.434
			c-27.328-21.472-44.949-39.739-56.196-53.747c8.478-0.631,20.857-3.662,35.103-13.706
			C992.315,958.967,1008.56,990.58,1008.56,990.58z"/>
		<path style="fill:#FFB27D;" d="M1166.634,992.139c0,0-14.746-13.653-20.754-6.008c-6.007,7.646-7.099,19.66-2.457,18.842
			c4.643-0.82,14.199-5.188,15.564-3.004c1.366,2.183,7.482,6.36,9.339,3.044C1170.184,1001.695,1166.634,992.139,1166.634,992.139z
			"/>
		<path style="fill:#FFB27D;" d="M1163.392,990.58c2.352,8.92,4.933,14.434,4.933,14.434c27.328-21.472,44.948-39.739,56.195-53.747
			c-8.478-0.631-20.855-3.662-35.102-13.706C1179.637,958.967,1163.392,990.58,1163.392,990.58z"/>
		<path style="fill:#2B478B;" d="M1196.475,918.376c-2.188-1.818-31.933-27.664-45.204-39.189c0,0,13.247-9.93,21.438,4.546
			C1180.901,898.207,1196.475,918.376,1196.475,918.376z"/>
		<path style="fill:#2B478B;" d="M1243.578,920.268c0,0-3.245,11.297-19.055,30.999
			C1206.223,951.013,1243.578,920.268,1243.578,920.268z"/>
		<path style="fill:#EE9849;" d="M1061.692,780.212c0,0-4.334,1.806-5.563,6.72c0,0,17.387,17.886,28.764,18.158L1061.692,780.212z"
			/>
		<path style="fill:#EE9849;" d="M1084.893,805.09l22.441-25.782c0,0,4.633,3.05,4.566,8.067
			C1111.9,787.375,1094.542,805.773,1084.893,805.09z"/>
		<path style="fill:#EE9849;" d="M1080.846,803.192c0,0-17.129,147.865-11.164,165.889c3.07,9.278,7.181,17.304,10.446,22.907
			c2.35,4.031,8.18,4.021,10.509-0.022c4.548-7.897,10.492-19.324,10.492-25.124c0-9.394-12.996-163.776-12.996-163.776
			L1080.846,803.192z"/>
		<path style="fill:#E58638;" d="M1076.363,795.944c0,0,10.353-1.038,16.655-0.399c1.249,0.127,1.945,1.495,1.335,2.594
			c-1.766,3.18-5.371,8.692-9.139,8.692C1079.92,806.831,1071.668,796.31,1076.363,795.944z"/>
	</g>
	<g>
		<path style="fill:#233862;" d="M1729.24,730.023c0,0-9.617-27.331-10.131-34.43c-0.515-7.101,2.68-27.58,26.341-29.765
			c23.661-2.185,32.468-4.71,32.468-4.71l-4.506,5.324c0,0,6.58-2.048,13.428,2.458c6.848,4.505,10.328,17.816,9.305,29.285
			c-1.024,11.47-9.983,24.095-10.109,28.838C1785.908,731.767,1729.24,730.023,1729.24,730.023z"/>
		<path style="fill:#D9935C;" d="M1664.717,1013.595c0,0-0.542,6.245-7.059,19.821c0,0-2.986,9.231,16.563,23.079
			c19.55,13.848,0.543-42.9,0.543-42.9H1664.717z"/>
		<path style="fill:#D9935C;" d="M1733.706,772.391c0,0-10.964,58.702-22.928,120.023c-12.995,66.653-27.168,136.402-29.715,137.249
			c-4.888,1.63-12.364-4.755-15.621-12.9c-2.618-6.55-7.11-60.399-4.054-95.198c0.744-8.493,1.607-15.466,2.568-19.782
			c4.888-21.994,6.37-99.796,21.032-112.015S1733.706,772.391,1733.706,772.391z"/>
		<path style="fill:#739AF0;" d="M1733.706,772.391c0,0-6.321,33.831-14.597,76.954c-2.623,13.686-5.447,28.299-8.331,43.069
			c-11.719,22.971-21.775,38.589-24.882,35.65c-6.338-5.983-17.465-6.723-24.508-6.5c0.744-8.493,1.607-15.466,2.568-19.782
			c0.386-1.738,0.75-3.823,1.103-6.197c4.1-27.673,6.425-94.566,19.93-105.817C1699.651,777.549,1733.706,772.391,1733.706,772.391z
			"/>
		<path style="fill:#4A75CB;" d="M1719.109,849.345c-2.623,13.686-5.447,28.299-8.331,43.069
			c-11.719,22.971-21.775,38.589-24.882,35.65c-6.338-5.983-17.465-6.723-24.508-6.5c0.744-8.493,1.607-15.466,2.568-19.782
			c0.386-1.738,0.75-3.823,1.103-6.197l35.137-84.817L1719.109,849.345z"/>
		<path style="fill:#D9935C;" d="M1782.337,771.525c0.259-11.839,0.063-25.976-1.536-37.919l-47.256,7.724
			c0,0,0,14.419,0.207,30.422c-0.028,0.003-0.046,0.007-0.046,0.007s-1.289,14.843,16.993,17.016
			C1768.982,790.945,1782.83,782.981,1782.337,771.525z"/>
		<path style="fill:#CB7D45;" d="M1733.412,744.245c0,0,11.133,22.808,23.895,22.808s24.709-21.45,24.709-21.45L1733.412,744.245z"
			/>
		<path style="fill:#233862;" d="M1764.909,1397.979c0,0,1.72-13.396,5.702-21.36c3.982-7.963,29.324-2.896,29.324-2.896
			s5.068,4.345,6.154,24.618L1764.909,1397.979z"/>
		<path style="fill:#233862;" d="M1678.567,1397.799c5.955-3.635,2.567-30.748,2.567-30.748s-27.748-22.198-31.563-5.203
			c-3.814,16.995-26.359,24.625-39.192,26.706c-8.858,1.437-11.602,6.343-12.451,9.245H1678.567z"/>
		<path style="fill:#D9935C;" d="M1734.947,745.935c4.593,3.613,18.056,7.201,21.947,7.621c0,0,19.965-4.452,23.594-6.642
			c5.621-3.407,5.259-10.304,5.547-19.891c0.346-11.348,1.489-20.26,0.222-26.802c-1.506-7.827-6.468-12.278-20.359-13.488
			c-25.503-2.214-36.126,4.173-36.571,12.723c-0.114,2.296-0.222,4.484-0.295,6.558
			C1728.01,732.678,1730.116,742.133,1734.947,745.935z"/>
		<path style="fill:#2B478B;" d="M1736.041,1196.313c-1.129,6.224-1.847,11.328-2.036,14.988
			c-2.579,50.313-42.353,165.352-49.466,168.035c-11.008,4.153-28.342-4.676-37.41-7.565c-3.759-1.2-6.295-4.99-5.458-8.835
			c19.695-90.548,26.935-220.933,29.568-298.126c1.331-38.882,8.005-65.741,8.005-65.741s97.004-25.882,97.58,6.858
			C1777.334,1034.898,1744.692,1148.52,1736.041,1196.313z"/>
		<path style="fill:#233862;" d="M1736.041,1196.313l-64.802-131.503c1.331-38.882,8.005-65.741,8.005-65.741
			s97.004-25.882,97.58,6.858C1777.334,1034.898,1744.692,1148.52,1736.041,1196.313z"/>
		<path style="fill:#2B478B;" d="M1714.458,1006.041l51.28,371.665c0,0,22.521,5.431,40.035,1.087
			c0,0,15.013-197.669,13.762-245.457s10.775-127.872-2.744-136.703C1803.271,987.8,1714.458,1006.041,1714.458,1006.041z"/>
		<path style="fill:#FFA412;" d="M1824.161,996.63c0.169,4.307-3.242,7.896-7.544,7.961l-80.81,1.232l-59.355,0.907
			c-2.779,0.049,6.007-22.189,6.186-167.182c0.044-32.355,50.134-67.17,51.058-67.17l0.011,0.012
			c0,4.659,7.342,13.262,18.653,13.999c13.424,0.88,29.896-5.799,29.896-13.532c0-0.087,1.558,1.603,4.066,5.251
			c6.702,9.764,20.201,33.571,28.819,75.017c6.805,32.729,4.188,76.488,9.086,132.948
			C1824.584,990.151,1824.058,993.773,1824.161,996.63z"/>
		<path style="fill:#739AF0;" d="M1821.18,1005.042c0,0-10.741,4.81-30.834,8.977c-14.939,3.1-35.043,5.849-59.74,6.001
			c-39.278,0.249-54.153-13.289-54.153-13.289c-2.779,0.049,6.007-22.189,6.186-167.182c0.044-32.355,50.134-67.17,51.058-67.17
			l0.011,0.012c0,0-1.287,43.085,11.745,55.754c0,0,18.279-14.119,41.995-54.305c6.7,9.765,19.076,37.84,27.694,79.285
			c1.749,8.434,2.878,17.594,3.672,27.516c2.285,28.597,1.775,63.515,5.414,105.433c0.357,4.078-0.169,7.7-0.065,10.557
			C1824.33,1000.937,1825.485,1004.977,1821.18,1005.042z"/>
		<path style="fill:#4A75CB;" d="M1821.18,1005.042c0,0-10.741,4.81-30.834,8.977c-6.321-9.64-14.288-27.038-15.391-54.457
			c-1.867-46.365,42.178-106.074,42.178-106.074l1.68,27.153c2.285,28.597,1.775,63.515,5.414,105.433
			c0.357,4.078-0.169,7.7-0.065,10.557C1824.33,1000.937,1825.485,1004.977,1821.18,1005.042z"/>
		
			<rect x="1731.879" y="861.751" transform="matrix(0.866 -0.5 0.5 0.866 -222.769 1011.0323)" style="fill:#2B478B;" width="86.689" height="118.914"/>
		<path style="fill:#D9935C;" d="M1854.24,944.356c0,0-15.373,1.5-41.657-1.199c-18.963-1.95-43.606-6.087-72.246-14.548
			l8.373-14.299c0,0,34.233-1.51,59.306-5.181c6.246-0.912,11.921-1.96,16.357-3.149c5.452-1.461-21.608-70.042-35.26-110.373
			c-3.259-9.623-5.752-17.639-6.858-22.749c0,0,2.384,0.386,6.131,1.124c10.627,2.097,32.224,7.026,41.418,13.978
			C1842.239,797.36,1873.279,903.379,1854.24,944.356z"/>
		<path style="fill:#D9935C;" d="M1749.015,914.309c0,0-11.599-10.861-16.08-10.861s-17.397,4.706-18.717,8.326
			c-1.317,3.621-1.844,10.137,1.846,11.585c3.691,1.448,18.979,5.069,22.934,5.431
			C1742.951,929.151,1752.705,926.979,1749.015,914.309z"/>
		<path style="fill:#739AF0;" d="M1854.24,944.356c0,0-15.373,1.5-41.657-1.199c1.45-7.141,2.797-21.087-4.567-34.027
			c6.246-0.912,11.921-1.96,16.357-3.149c5.452-1.461-21.608-70.042-35.26-110.373c-1.092-13.039-1.667-21.767-1.667-21.767
			l0.939,0.142c10.627,2.097,32.224,7.026,41.418,13.978C1842.239,797.36,1873.279,903.379,1854.24,944.356z"/>
		<path style="fill:#4A75CB;" d="M1745.45,828.144c0,0,36.565-16.11,37.107-17.377c0.544-1.268-1.81-11.042-4.344-13.938
			c0,0,17.559,1.629,18.644-0.544c1.087-2.172,1.449-20.274,1.449-20.274s-6.879-7.239-15.93-7.965c0,0-7.924,19.651-10.86,25.523
			C1763.733,809.139,1745.45,828.144,1745.45,828.144z"/>
		<path style="fill:#4A75CB;" d="M1736.761,796.286c0,0,2.354,18.825,8.689,31.858c0,0-19.097-13.305-20.727-17.648
			c-1.629-4.345,4.616-12.763,4.616-12.763s-11.403-0.271-11.676-4.072c-0.271-3.801,3.53-18.734,3.53-18.734
			s9.809-7.162,12.524-6.89L1736.761,796.286z"/>
		<path style="fill:#233862;" d="M1728.803,714.565c0,0,0.986-16.993,11.534-17.197c10.548-0.205,28.89-1.234,36.513-8.399
			c7.621-7.165-45.299-3.889-45.299-3.889S1725.152,705.549,1728.803,714.565z"/>
		<path style="fill:#233862;" d="M1771.159,691.496c0,0,13.748,5.598,15.681,14.336
			C1786.84,705.832,1791.365,673.61,1771.159,691.496z"/>
	</g>
	<g>
		<g>
			<polygon style="fill:#FFB27D;" points="884.285,1311.464 895.676,1359.438 912.737,1359.341 913.363,1311.464 			"/>
			<polygon style="fill:#FFB27D;" points="1027.803,1313.508 1060.212,1359.438 1072.844,1343.219 1053.338,1307.193 			"/>
			<path style="fill:#163560;" d="M911.301,712.477c-6.436-2.119-13.427-1.082-18.208,0.179c0.987-1.537,3.343-2.5,3.343-2.5
				c-3.091,0.158-9.189,4.486-9.189,4.486c-44.988-7.672-39.16,55.119-35.404,69.223c3.749,14.104-10.209,21.771-29.662,37.399
				c-37.113,29.821-34.958,59.303-34.958,59.303c0.36,0.125,0.741,0.274,1.149,0.448c1.354-3.897,4.268-11.292,7.639-12.999
				c-0.071,0.345-2.402,9.856-2.923,15.143c14.102,6.836,41.125,22.832,60.009,34.229c-0.646-2.841-1.35-6.919-0.738-9.269
				l4.359,11.462c10.11,6.122,17.104,10.452,17.104,10.452c-3.38-11.327,37.591-82.959,61.694-106.797
				c4.756-11.319,3.613-29.391,3.515-30.813c1.644,14.182,0.834,22.483-0.409,27.317
				C957.78,793.349,928.358,718.088,911.301,712.477z"/>
			<path style="fill:#FFB27D;" d="M929.102,827.992c0.142,0.064-13.683,7.241-24.081,4.397c-9.781-2.667-16.173-15.35-16.037-15.378
				c4.142-0.822,5.336-6.516,5.248-30.977l1.873,0.369l31.486,6.235c0,0-0.717,9.909-0.737,19.244
				C926.832,819.722,927.307,827.155,929.102,827.992z"/>
			<path style="fill:#5FABB7;" d="M878.595,729.543c0,0,11.96-19.279,34.176-7.753C912.771,721.79,901.257,722.109,878.595,729.543z
				"/>
			<path style="fill:#EF9E67;" d="M927.591,792.64c0,0-0.717,9.909-0.737,19.244c-17.619-0.497-26.934-16.569-30.749-25.479
				L927.591,792.64z"/>
			<path style="fill:#163560;" d="M889.625,787.509c0,0-11.935-12.477-16.572-24.268c-3.31-8.419-5.388-41.678,28.073-43.572
				c0,0,9.633-0.973,19.72,3.233c8.023,3.347,20.287,11.588,14.586,42.124l-1.036,10.137L889.625,787.509z"/>
			<path style="fill:#A53D38;" d="M1069.807,1332.727c0,0-8.369,1.443-15.239,1.968c-1.525,0.115-2.975,0.184-4.242,0.184
				c-3.309,0-9.267-1.246-13.271-2.18l-0.3-0.067c-1.757-0.416-3.098-0.756-3.596-0.885l-0.211-0.055
				c0,0-41.734-46.461-65.139-120.936c-0.544-1.736-1.123-3.485-1.729-5.256c-12.815-37.356-39.372-84.239-53.365-126.683
				c-2.227-6.754-4.229-13.121-6.02-19.141c-0.578-1.928-1.137-3.82-1.668-5.686c-10.316-35.838-13.299-59.365-16.05-84.505
				l84.144,21.408C973.121,990.894,1008.448,1144.045,1069.807,1332.727z"/>
			<path style="fill:#FFB27D;" d="M933.102,797.619c0,0-40.729,8.912-45.888-16.538c-5.159-25.45-13.891-41.44,11.895-48.205
				c25.787-6.767,32.823,1.918,36.611,9.994C939.509,750.945,943.563,794.644,933.102,797.619z"/>
			<path style="fill:#163560;" d="M917.596,728.501c0,0-5.169,32.119-21.451,39.996c-16.28,7.877-24.656,4.777-24.656,4.777
				s11.063-13.119,10.114-31.934C881.602,741.341,906.291,715.987,917.596,728.501z"/>
			<path style="fill:#163560;" d="M915.31,731.484c0,0,9.7,4.982,13.045,11.054c3.344,6.072,6.949,19.231,10.748,17.994
				c0,0,4.338-21.997-7.451-31.571C919.152,718.81,915.31,731.484,915.31,731.484z"/>
			<path style="fill:#FFB27D;" d="M895.104,1356.756c0,0,1.373,9.502-2.173,19.669c0,0-2.793,12.724,9.738,12.96
				c12.531,0.236,15.604-0.945,14.186-8.748c-1.418-7.803-4.117-21.296-4.117-21.296L895.104,1356.756z"/>
			<path style="fill:#C45446;" d="M892.931,1376.425c0,0-2.32,12.015-0.902,18.398c0,0,3.782,2.837,12.887,2.837
				c8.63,0,13.122-2.837,13.122-2.837s0.267-13.167-2.039-18.724C915.998,1376.1,907.117,1389.429,892.931,1376.425z"/>
			<path style="fill:#FFB27D;" d="M1103.04,1381.911c0,0-23.104-25.644-30.196-38.692l-17.179,8.802l38.401,36.063l8.984-1.182
				L1103.04,1381.911z"/>
			<path style="fill:#C45446;" d="M1117.716,1396.941c0,0-24.826,0-29.082-0.476c-4.256-0.468-7.682-6.618-12.293-15.84
				c-1.887-3.772-6.121-5.851-10.462-6.993v21.357h-6.562l-6.206-22.698c-4.094-7.519-0.326-14.335,2.554-20.271
				c3.348-0.008,12.355,2.283,29.422,21.513c5.61,6.313,11.804,8.569,17.953,8.378c0.085,0.057,0.171,0.099,0.256,0.135
				C1117.482,1388.43,1117.716,1396.941,1117.716,1396.941z"/>
			<path style="fill:#912F2F;" d="M1054.567,1334.694c-1.525,0.115-2.975,0.184-4.242,0.184c-3.309,0-9.267-1.246-13.271-2.18
				l-0.3-0.067l-3.596-0.885l-0.211-0.055c0,0-41.734-46.461-65.139-120.936c-0.544-1.736-1.123-3.485-1.729-5.256
				c-12.815-37.356-39.372-84.239-53.365-126.683c-2.227-6.754-4.229-13.121-6.02-19.141c-0.578-1.928-1.137-3.82-1.668-5.686
				l14.879-11.297c0,0,44.683,72.35,58.513,140.437C989.885,1239.566,1039.247,1312.734,1054.567,1334.694z"/>
			<path style="fill:#A53D38;" d="M921.465,1189.478c0.252,33.106-1.424,109.229-5.734,140.75c0,0-4.089,3.617-14.231,3.66
				c-10.385,0.043-15.029-3.79-15.029-3.79c-10.82-54.795-18.514-100.132-24.118-139.204c-4.597-32.059-8.683-59.548-11.821-83.21
				c-2.785-20.967-4.828-38.938-5.809-54.428c-0.129-2.105-0.245-4.161-0.341-6.17c-0.122-2.655-0.217-5.236-0.266-7.735
				c-0.047-2.52-0.06-4.971-0.04-7.347l0.361-0.035l20.904-2.035l66.051-6.442C930.29,1081.508,921.322,1170.233,921.465,1189.478z"
				/>
			<path style="fill:#912F2F;" d="M901.5,1333.888c-8.835,0.51-15.029-3.79-15.029-3.79
				c-10.82-54.795-18.514-100.132-24.118-139.204c-4.597-32.059-8.683-59.548-11.821-83.21c-2.785-20.967-4.828-38.938-5.809-54.428
				c-0.116-7.634-0.198-14.947-0.285-21.287c-0.096-6.428-0.197-11.868-0.375-15.654l21.279,13.619l22.39,14.319
				c0,0-31.76,28.893-23.956,83.511C871.572,1182.382,890.638,1326.152,901.5,1333.888z"/>
			<path style="fill:#BC3F3F;" d="M918.807,815.955c0,0,33.941-5.386,45.334,5.947c13.963,13.89,40.177,93.525,39.135,102.613
				c-0.397,3.469-14.175,1.855-18.897-3.096C960.837,896.733,927.082,834.429,918.807,815.955z"/>
			<path style="fill:#BC3F3F;" d="M984.737,1038.315c-25.338,6.585-143.576,19.583-144.598-10.03
				c-0.252-7.225,0-15.947,0.572-25.393c1.764-29.253,6.565-65.403,8.866-85.294c1.055-9.117-2.451-49.954,0.238-72.206
				c0.394-3.296,0.926-6.19,1.634-8.506c5.106-16.792,28.055-21.347,39.835-21.749l35.546-1.212c0,0,36.709,41.006,41.815,53.604
				c5.107,12.598,6.776,55.722,10.745,76.606C983.361,965.019,997.063,1035.115,984.737,1038.315z"/>
			<path style="fill:#A53D38;" d="M914.907,938.231c0,0-19.761,60.692-74.195,64.661c1.764-29.253,6.565-65.403,8.866-85.294
				c1.055-9.117-2.451-49.954,0.238-72.206c0.708,0.149,1.351,0.545,2.091,0.688C911.848,857.656,920.354,925.579,914.907,938.231z"
				/>
			<path style="fill:#EF9E67;" d="M1001.565,926.01c0,0-35.682,11.7-79.158-7.066c0,0-11.843-1.12-17.719,0.375
				c0,0,1.263-11.744,7.01-14.941c5.747-3.194,30.46,3.717,37.852,2.701C965.699,904.857,993.835,903.12,1001.565,926.01z"/>
			<path style="fill:#A53D38;" d="M969.764,898.683c0,0,3.348-28.997-8.001-46.475c0,0,4.007-1.362,6.884,3.178
				c2.876,4.54,22.916,47.615,13.374,50.787C972.479,909.345,969.764,898.683,969.764,898.683z"/>
			<path style="fill:#EF9E67;" d="M917.672,903.527c-0.512,0.003-16.853,2.135-19.747,4.177c-2.895,2.044-0.341,9.193,5.107,9.874
				C908.479,918.26,917.672,903.527,917.672,903.527z"/>
			<path style="fill:#FFB27D;" d="M873.002,914.514c0,0,46.542-1.702,88.761-9.873c0,0,7.717,0.068,6.81,6.81
				c-0.907,6.74-73.174,44.466-89.063,37.202L873.002,914.514z"/>
			<path style="fill:#FFB27D;" d="M961.763,904.641c0,0,4.938-5.958,8.001-5.958c3.063,0,11.064,3.915,12.257,7.49
				c1.191,3.575-9.47,1.021-13.448,5.277C964.593,915.706,961.763,904.641,961.763,904.641z"/>
			<path style="fill:#BC3F3F;" d="M891.288,815.139c0,0-39.111,0.093-44.831,14.145c-10.441,25.648,23.974,110.744,33.053,119.369
				c3.905,3.709,21.99-2.139,21.99-26.648C901.5,909.293,900.588,835.031,891.288,815.139z"/>
		</g>
	</g>
	<g>
		<g>
			<path style="fill:#FFB27D;" d="M871.474,1030.239c0,0,25.169,8.694,21.628,37.687c0,0-2.324,11.765-9.569,6.547
				c-7.245-5.219-3.85-4.256-14.197-11.391c-10.348-7.135-17.103-18.385-15.925-27.322L871.474,1030.239z"/>
			<path style="fill:#739AF0;" d="M872.624,1032.101l-14.907,18.088c-0.694,0.846-1.791,1.231-2.865,1.032
				c-13.974-2.566-62.07-33.566-77.823-46.218c-1.71-1.37-3.033-2.525-3.896-3.406c-5.874-5.983-26.13-35.514-40.507-61.813
				c-8.277-15.148-14.606-29.221-15.106-37.106c-1.792-28.154,13.018-67.525,13.018-67.525
				c43.808,15.246,48.416,50.224,48.416,50.224l24.287,90.388l68.789,51.415C873.599,1028.352,873.867,1030.597,872.624,1032.101z"
				/>
			<path style="fill:#4A82D3;" d="M777.028,1005.003c-1.71-1.37-3.033-2.525-3.896-3.406c-5.874-5.983-26.13-35.514-40.507-61.813
				c-1.861-15.894-0.584-30.802,5.967-41.225C738.592,898.559,775.832,964.087,777.028,1005.003z"/>
			<path style="fill:#FFB27D;" d="M751.789,1265.42l-7.448,31.056l-4.608,19.224l-15.344,63.983c0,0-13.133,4.048-26.782,0
				c0,0-5.056-21.173-5.2-47.582c-0.08-13.812,1.189-29.063,5.225-43.459c1.638-5.859,3.743-11.569,6.396-16.994
				C725.673,1227.435,751.789,1265.42,751.789,1265.42z"/>
			<path style="fill:#2B478B;" d="M764.505,1398.377H692.4c0,0-1.14-10.91,2.036-21.347c0.467-1.551,1.033-3.089,1.712-4.583
				c0,0,16.098,3.648,29.978,0c0,0,13.052,11.115,20.942,14.521C754.951,1390.381,763.67,1388.525,764.505,1398.377z"/>
			<path style="fill:#E8945B;" d="M744.341,1296.476l-4.608,19.224c-7.84,5-24.752,14.061-47.326,16.401
				c-0.08-13.812,1.189-29.063,5.225-43.459c6.632-3.362,13.383-5.125,19.13-4.123
				C731.07,1287.017,739.578,1292.247,744.341,1296.476z"/>
			<path style="fill:#1F396D;" d="M727.054,1398.377H692.4c0,0-1.14-10.91,2.036-21.347
				C703.136,1379.739,720.839,1386.533,727.054,1398.377z"/>
			<path style="fill:#FFB27D;" d="M694.311,1265.42l-7.448,31.056l-4.607,19.224l-15.344,63.983c0,0-13.133,4.048-26.783,0
				c0,0-5.057-21.173-5.2-47.582c-0.081-13.812,1.19-29.063,5.225-43.459c1.639-5.859,3.742-11.569,6.396-16.994
				C668.195,1227.435,694.311,1265.42,694.311,1265.42z"/>
			<path style="fill:#2B478B;" d="M638.671,1372.444c0,0,16.096,3.653,29.978,0c0,0,13.053,11.119,20.94,14.526
				c7.888,3.408,16.606,1.557,17.437,11.408h-72.104C634.922,1398.379,633.418,1383.985,638.671,1372.444z"/>
			<path style="fill:#E8945B;" d="M686.863,1296.476l-4.607,19.224c-7.84,5-24.753,14.061-47.327,16.401
				c-0.081-13.812,1.19-29.063,5.225-43.459c6.633-3.362,13.383-5.125,19.13-4.123
				C673.594,1287.017,682.1,1292.247,686.863,1296.476z"/>
			<path style="fill:#C65447;" d="M766.833,1294.421c-1.731,6.407-7.547,10.854-14.185,10.854H637.034
				c-8.706,0-15.563-7.404-14.896-16.079c1.214-15.748,5.548-41.467,7.441-58.834c0.785-7.217,1.146-12.99,0.691-16.004
				c-11.67-77.217-21.466-168.171-20.275-185.558c0.168-2.447,0.286-3.711,0.286-3.711s8.419-0.71,21.229-1.208
				c37.232-1.47,111.554-1.215,123.902,23.134c12.579,24.803,20.175,189.486,20.175,189.486
				C777.426,1251.889,770.932,1279.257,766.833,1294.421z"/>
			<path style="fill:#B2443B;" d="M629.58,1230.361c0.785-7.217,1.146-12.99,0.691-16.004
				c-11.67-77.217-21.466-168.171-20.275-185.558c0.168-2.447,0.286-3.711,0.286-3.711s8.419-0.71,21.229-1.208
				c19.26,11.346,31.796,30.676,31.796,30.676S659.428,1199.058,629.58,1230.361z"/>
			<path style="fill:#B2443B;" d="M686.769,720.56c0-8.568,5.366-15.845,14.602-13.535c8.314,2.078,16.431,1.985,16.431,10.555
				c0,8.569-6.946,18.497-15.516,18.497C693.716,736.077,686.769,729.131,686.769,720.56z"/>
			<path style="fill:#C65447;" d="M696.603,795.876c0,0-48.114-43.331-4.559-74.008c0,0,12.998-3.464,19.604-2.227
				c0,0,23.676-6.927,37.53,9.153c13.854,16.081,19.873,27.709,7.999,42.058C745.303,785.201,696.603,795.876,696.603,795.876z"/>
			<path style="fill:#FFB27D;" d="M641.394,1057.578c0,0,11.878,23.834-10.955,42.047c0,0-9.899,6.771-11.417-2.027
				c-1.517-8.8,0.234-5.733-2.155-18.074c-2.389-12.339,0.668-25.1,7.767-30.655L641.394,1057.578z"/>
			<path style="fill:#FFB27D;" d="M736.015,795.474c0,0-0.591,6.489-1.693,15.257c-0.535,4.284-1.19,9.117-1.962,13.999
				c-0.548,3.506-1.158,7.043-1.824,10.424l-14.896,50.309l-34.979-56.604c0,0,8.22-6.8,19.36-43.658
				c0.106-0.393,0.181-0.604,0.181-0.604L736.015,795.474z"/>
			<path style="fill:#739AF0;" d="M756.396,1043.671c0.455,5.653-0.978,6.681-0.978,6.681s-21.509,7.798-75.598,5.101
				c-5.854-0.293-11.365-0.591-16.515-0.896c-34.859-2.056-53.504-4.205-53.504-4.205s-28.552-65.901,25.089-147.098
				c6.065-9.179,13.183-18.558,21.51-28.054c8.685-9.906,10.604-23.164,13.892-35.762c0.94-3.612-1.78-4.41-0.424-7.815
				c0,0,9.783-2.766,10.792-2.766c5.555,4.896,12.885,14.41,31.074,16.291c12.299,1.283,17.112-5.648,18.861-9.802
				c4.689,1.694,9.547,4.62,13.526,6.532c32.96,15.824,35.986,46.512,35.986,46.512s-30.289,99.596-32.17,112.032
				C747.1,1005.953,754.049,1014.553,756.396,1043.671z"/>
			<path style="fill:#E8945B;" d="M734.321,810.731c-0.535,4.284-2.349,16.01-3.12,20.892
				c-37.039-14.441-32.188-42.582-31.18-46.424c0.106-0.393,0.181-0.604,0.181-0.604S719.8,798.507,734.321,810.731z"/>
			<g>
				<path style="fill:#FFB27D;" d="M742.26,815.708c0,0-42.779,1.373-43.224-25.282c-0.444-26.652-6.265-44.427,21.029-46.431
					c27.295-2.003,32.773,8.079,35.085,16.939C757.463,769.794,753.377,814.664,742.26,815.708z"/>
			</g>
			<path style="fill:#C65447;" d="M745.997,740.002c0,0-2.686,44.502-54.837,39.727C691.16,779.729,692.269,718.1,745.997,740.002z"
				/>
			<path style="fill:#C65447;" d="M736.015,744.426c0,0,14.614,18.089,21.243,23.858
				C757.258,768.284,773.515,744.958,736.015,744.426z"/>
			<path style="fill:#C65447;" d="M736.015,744.426c0,0,13.13,22.174,19.759,27.944C755.773,772.37,773.515,744.958,736.015,744.426
				L736.015,744.426z"/>
			<path style="fill:#4A82D3;" d="M663.307,1054.557c-34.859-2.056-53.504-4.205-53.504-4.205s-28.552-65.901,25.089-147.098
				C645.752,928.567,671.364,996.22,663.307,1054.557z"/>
			<path style="fill:#739AF0;" d="M680.661,828.857c0,0-41.386,8.492-59.822,29.843c-14.128,16.359-29.583,96.346-29.583,109.563
				c0,12.629,14.518,79.777,23.579,92.651c0.63,0.895,1.68,1.388,2.767,1.273l23.307-2.473c1.945-0.205,3.324-1.995,3.024-3.928
				l-13.096-84.883l45.967-81.525C676.805,889.379,703.908,857.253,680.661,828.857z"/>
		</g>
		<g>
			<path style="fill:#2C3A64;" d="M858.207,1375.397c0,0,3.506,6.842,11.274,8.534c4.894,1.066,9.082,3.612,11.69,7.184
				c2.204,3.018,0.072,7.262-3.664,7.262h-39.43c-3.357,0-5.977-2.896-5.642-6.238c0.294-2.921,0.601-6.322,0.734-8.931
				c0.293-5.695,5.996-10.278,5.996-10.278L858.207,1375.397z"/>
			<path style="fill:#35488B;" d="M867.137,1275.961c1.647,29.982-2.442,98.128-2.442,98.128s-2.749,7.599-20.108,9.413
				c-9.3,0.971-17.672-1.443-17.672-1.443c-3.502-16.131-6.742-31.545-9.724-46.186c-21.433-105.146-29.792-170.095-29.792-170.095
				L872,1146.113c0,0-3.707,59.361-4.797,99.841C866.861,1258.59,866.778,1269.386,867.137,1275.961z"/>
			<path style="fill:#2C3A64;" d="M872,1146.113c0,0-3.707,59.361-4.797,99.841l-50.013,89.919
				c-21.433-105.146-29.792-170.095-29.792-170.095L872,1146.113z"/>
			<path style="fill:#35488B;" d="M786.942,1010.16c0,0-32.735-14.901-57.503-1.865c-24.768,13.035-9.626,120.627,25.792,131.057
				l0,0C755.231,1139.352,821.581,1160.566,786.942,1010.16z"/>
			<path style="fill:#E8945B;" d="M881.639,1171.195L881.639,1171.195L881.639,1171.195c-0.096-0.146-0.203-0.285-0.319-0.418
				c-1.354-2.059-4.304-9.442-4.304-9.442l-5.31,6.953c-0.136,0.153-2.237-1.488-2.35-1.311l0.522,17.993l5.281-1.248
				c0.227-0.059,0.447-0.136,0.66-0.234l0,0l0,0c0.642-0.297,1.208-0.771,1.61-1.409l4.265-6.757
				C882.515,1174.022,882.44,1172.402,881.639,1171.195z"/>
			<path style="fill:#E8945B;" d="M857.235,993.44c0,0,10.426,0.025,16.652,14.682c12.905,30.376,7.3,95.942,6.518,105.329
				c0,0,4.432,18.641-2.152,50.879l-8.584,5.085c0,0-13.218-127.385-11.603-139.972C859.68,1016.856,857.235,993.44,857.235,993.44z
				"/>
			<path style="fill:#2C3A64;" d="M789.567,1375.397c0,0,3.506,6.842,11.274,8.534c4.894,1.066,9.082,3.612,11.689,7.184
				c2.204,3.018,0.072,7.262-3.664,7.262h-39.43c-3.357,0-5.977-2.896-5.641-6.238c0.292-2.921,0.6-6.322,0.734-8.931
				c0.291-5.695,5.994-10.278,5.994-10.278L789.567,1375.397z"/>
			<path style="fill:#35488B;" d="M816.997,873.269c-8.432,0-19.025,3.63-24.709,9.153c-6.037,5.866-12.318,6.166-16.791,13.093
				c-4.663,7.221-7.552,14.723-5.209,24.882c2.559,11.097,2.039,21.832,9.01,29.978c3.45,4.033,9.07,4.489,12.99,8.194
				c7.196,6.803,15.376,8.956,24.709,8.956c17.592,0,28.541-10.422,37.546-23.408c7.213-10.403,5.784-17.417,7.476-26.317
				C867.346,889.788,843.979,873.269,816.997,873.269z"/>
			<path style="fill:#FFB27D;" d="M841.766,986.19l-33.628,17.188l-6.739-23.33c0,0,4.284-8.074,6.222-21.3
				c0.812-5.562,1.213-12.034,0.696-19.203l27.398,14.029c0,0-0.652,2.533-1.09,6.273c-0.467,4.04-0.675,9.486,0.473,14.661
				C836.089,978.949,838.076,983.19,841.766,986.19z"/>
			<path style="fill:#35488B;" d="M763.856,1155.242c0,0-6.392,84.744-4.968,219.803c0,0,7.714,4.056,17.014,4.98
				c17.37,1.729,21.6-5.156,21.6-5.156s17.763-65.916,22.204-95.617c4.093-27.381,30.977-126.189,30.977-126.189L763.856,1155.242z"
				/>
			<path style="fill:#F99746;" d="M863.995,988.542c-2.989-1.4-12.369-5.158-26.481-7.48c0.148,4.834-1.143,9.345-9.626,10.456
				c-11.287,1.471-21.38-6.232-26.49-11.469l-0.001,0.001l0.001-0.003c0,0-7.958,0.854-17.237,2.885
				c-4.643,1.02-9.616,2.332-14.087,3.99c-5.422,1.993-10.105,4.481-12.604,7.544c-0.002,0.001-0.003,0.001-0.006,0.002l0.001,0.005
				c-8.685,10.657-22.972,42.755-22.972,42.755s23.788,8.819,29.784,13.963l0.137,1.146l3.724,30.911l-11.087,61.57
				c-0.095,0.54-0.148,1.079-0.148,1.608c0,4.115,2.815,7.817,6.949,8.812c0,0,0.953,0.159,2.709,0.402
				c11.754,1.65,59.465,7.342,96.872-2.814c8.41-2.284,13.953-10.313,13.256-19.011l-6.1-76.527
				c3.256-0.56,7.013-1.151,10.067-1.491c2.539-0.276,4.581-0.37,5.428-0.117C886.084,1055.679,881.857,995.92,863.995,988.542z"/>
			<path style="fill:#ED7D2B;" d="M793.405,1102.113c-0.474,21.483-14.551,46.725-26.844,53.526
				c-1.756-0.243-2.709-0.402-2.709-0.402c-4.135-0.994-6.949-4.696-6.949-8.812c0-0.529,0.053-1.068,0.148-1.608l11.087-61.57
				l-3.724-30.911c0.181-0.54,0.275-0.825,0.275-0.825S794.241,1064.162,793.405,1102.113z"/>
			<path style="fill:#ED7D2B;" d="M880.656,1055.796c-3.131,0.349-10.083,1.493-10.083,1.493l-3.522-32.057
				C867.051,1025.232,878.816,1047.829,880.656,1055.796z"/>
			<path style="fill:#35488B;" d="M759.031,1133.822l2.88-15.992c48.763-70.551,52.453-83.206,30.524-114.882
				c-6.28-9.072-17.704-14.742-22.361-16.026c4.471-1.658,9.444-2.971,14.087-3.99c4.628,2.174,8.885,4.312,12.186,7.169
				C863.273,1048.043,759.031,1133.822,759.031,1133.822z"/>
			<path style="fill:#FFB27D;" d="M787.77,1066.888c1.211-0.09,6.471-2.726,6.471-2.726s2.643-19.563,21.734-20.882
				c0,0,7.952,0.048,6.32,5.476c-1.631,5.429-1.802,3.071-3.931,10.784s-7.676,13.578-13.58,13.93l-6.05,1.637
				C798.735,1075.106,784.589,1067.12,787.77,1066.888z"/>
			<g>
				<path style="fill:#FFB27D;" d="M794.241,1064.162c0,0-32.041,2.908-36.776,5.012c0,0,2.601-7.033,7.223-17.662
					c-4.178-4.108-17.908-10.219-26.999-13.026c-6.935,17.689-9.599,35.2-5.709,52.08c0.41,1.783,1.977,3.06,3.806,3.145
					c10.254,0.479,44.272,0.309,68.979-20.464L794.241,1064.162z"/>
			</g>
			<path style="fill:#E8945B;" d="M835.098,974.507c-15.579-0.417-27.478-15.76-27.478-15.76l27.005,1.099
				C834.158,963.886,833.95,969.332,835.098,974.507z"/>
			<path style="fill:#FFB27D;" d="M836.581,965.096c0,0-34.424,4.195-35.159-20.057c-0.733-24.252,13.615-39.962,23.191-39.782
				c19.098,0.358,22.248,8.075,24.463,16.11C851.289,929.402,852.429,963.386,836.581,965.096z"/>
			<path style="fill:#FFFFFF;" d="M827.375,951.118c0,0,0.749,3.023,8.288,2.467c0,0,6.331-0.466,6.097-3.798
				C841.76,949.787,835.59,947.489,827.375,951.118z"/>
			<path style="fill:#35488B;" d="M833.135,905.482c0,0-29.419-0.018-22.658,20.179c4.26,12.73-9.907,14.708-9.907,14.708
				l-6.818-20.402l4.271-15.896L833.135,905.482z"/>
		</g>
	</g>
	<g>
		<g>
			<path style="fill:#D9935C;" d="M1849.205,978.284c-32.398-8.245-68.014-58.509-68.014-58.509l9.123-7.912
				c9.444,11.135,48.715,30.313,48.715,30.313c-0.21-10.19,0.057-19.484,0.699-27.944c4.358-57.495,26.033-76.651,31.949-80.854
				c0.954-0.682,1.503-0.967,1.503-0.967s0.021,0.417,0.056,1.209c0.086,1.708,0.243,5.15,0.404,9.874
				C1874.842,878.684,1876.278,985.181,1849.205,978.284z"/>
			<path style="fill:#D9935C;" d="M1790.314,911.863c-0.137-1.359-1.05-21.111-4.974-24.872c-3.924-3.761-11.672-8.883-13.898-8.468
				c-2.226,0.414-9.788,12.991-6.218,21.655c3.57,8.662,15.967,19.597,15.967,19.597L1790.314,911.863z"/>
			<g>
				<path style="fill:#F1A34F;" d="M1798.365,914.159l-21.338,0.893c-0.707,0.03-1.307-0.521-1.336-1.229l-1.701-40.686
					c-0.03-0.708,0.521-1.306,1.229-1.336l21.338-0.893c0.708-0.029,1.306,0.519,1.336,1.229l1.701,40.685
					C1799.623,913.532,1799.073,914.13,1798.365,914.159z"/>
				<path style="fill:#D86713;" d="M1792.821,914.392l-19.354,0.81c-1.256,0.053-2.316-0.924-2.368-2.179l-1.62-38.703
					c-0.053-1.256,0.923-2.317,2.179-2.37l19.354-0.809c1.256-0.053,2.316,0.922,2.369,2.178l1.619,38.704
					C1795.052,913.278,1794.076,914.339,1792.821,914.392z"/>
			</g>
			<path style="fill:#D9935C;" d="M1769.824,880.032c0,0,5.815-6.494,11.633-1.531c5.818,4.963-0.386,15.561-5.431,18.457
				c-5.046,2.898-6.665,4.407-6.665,4.407L1769.824,880.032z"/>
		</g>
		<path style="fill:#CB7D45;" d="M1919.754,1312.561c-1.975,7.849-4.146,15.318-6.357,22.273c-0.476,1.491-0.942,2.958-1.418,4.391
			c-0.236,0.713-0.475,1.418-0.703,2.114c-0.468,1.376-0.926,2.728-1.385,4.047c-0.598,1.72-1.196,3.399-1.786,5.021
			c-0.435,1.204-0.868,2.384-1.294,3.538c-6.57,17.621-12.075,28.787-12.075,28.787l-13.091-0.901c0,0,4.916-23.38,5.898-56.868
			c0.032-1.195,0.065-2.4,0.09-3.621c0.049-2.597,0.082-5.242,0.082-7.945c0-1.106-0.008-2.229-0.016-3.359
			c-0.264-28.843-3.834-62.93-15.229-95.476c-9.265-26.46-15.982-51.216-20.841-73.589
			c-15.679-72.219-11.992-119.666-11.992-119.666l73.645,8.617l3.433,0.401c0.312,33.824,1.18,79.748,1.942,115.653
			c0.131,6.234,0.254,12.165,0.377,17.678c0.508,23.053,0.892,38.813,0.892,38.813
			C1934.089,1232.96,1928.944,1276,1919.754,1312.561z"/>
		<path style="fill:#233862;" d="M1898.669,768.449c0,0,17.423,14.834,1.448,31.909c0,0,13.312,1.307,17.817-2.38
			c0,0-0.887,1.797-1.706,2.605c0,0,14.882,0.535,21.025-4.107c6.145-4.642,2.196-80.786-39.109-72.273
			c0,0-35.013-2.643-31.75,37.868c3.262,40.511-9.957,40.513-9.957,40.513s3.677,1.812,5.451,1.812c0,0,2.594-0.989,3.106-2.424
			c0,0-0.513,2.253-1.178,2.97c0,0,14.269,1.352,21.394-4.034C1892.335,795.521,1900.703,776.807,1898.669,768.449z"/>
		<path style="fill:#D9935C;" d="M1954.894,1013.043c-13.919-31.213-20.577-40.039-20.809-49.86
			c-0.185-7.766,3.646-16.147,11.083-36.692c1.752-4.842,2.961-9.821,3.704-14.853c5.884-39.612-17.022-82.434-31.259-85.35
			c-3.962-1.047-10.677-15.354-10.595-38.407l-1.782,0.351l-29.978,5.936c0,0,0.683,9.434,0.701,18.321
			c0.021,7.407-0.379,14.942-2.058,15.826c-2.157,0.195-4.121,0.589-4.121,0.589s-25.369,17.817-27.007,41.982
			c-2.188,32.281,20.569,70.547,0.386,135.065C1822.553,1071.844,1962.583,1030.291,1954.894,1013.043z"/>
		<path style="fill:#CB7D45;" d="M1875.258,794.167c0,0,0.684,9.434,0.703,18.321c16.775-0.473,25.643-15.775,29.275-24.258
			L1875.258,794.167z"/>
		<path style="fill:#233862;" d="M1908.332,784.966c0,0,8.791-13.89,10.901-25.768c1.507-8.479-2.813-39.911-34.398-35.384
			c0,0-9.174,0.903-17.797,6.727c-6.857,4.632-16.755,14.632-5.688,42.06l2.874,9.266L1908.332,784.966z"/>
		<path style="fill:#D9935C;" d="M1869.656,802.582c0,0,39.689,0.655,39.717-24.068c0.028-24.724,5.168-41.289-20.171-42.753
			c-25.34-1.463-30.273,7.966-32.29,16.216C1854.896,760.226,1859.332,801.774,1869.656,802.582z"/>
		<path style="fill:#233862;" d="M1871.125,735.155c0,0,10.867,29.005,27.544,33.294c16.678,4.288,23.912-0.18,23.912-0.18
			s-12.792-10.162-15.446-27.901C1907.135,740.368,1879.322,721.351,1871.125,735.155z"/>
		<path style="fill:#233862;" d="M1873.818,737.51c0,0-8.116,6.477-10.094,12.771c-1.979,6.295-2.868,19.256-6.646,18.815
			c0,0-8.188-19.715,1.014-30.867C1867.849,726.403,1873.818,737.51,1873.818,737.51z"/>
		<path style="fill:#D9935C;" d="M2006.513,1046.197l-11.916,3.573c0,0-39.305-65.216-42.879-82.185
			c-1.167-5.525-4.024-16.581-7.36-28.967c-6.901-25.651-15.809-57.039-15.809-57.039l-2.934-12.706l-10.005-43.33
			c0,0,19.158,1.957,30.364,6.643c3.711,1.549,6.541,3.396,7.53,5.565c8.231,18.102,16.45,63.785,22.228,96.373
			c3.219,18.162,5.674,32.26,6.956,35.248C1986.263,977.707,1997.183,1023.566,2006.513,1046.197z"/>
		<path style="fill:#233862;" d="M1872.311,738.489c0,0,7.742,30.374,28.786,40.102c0,0-21.044-18.661-22.83-38.713
			C1876.479,719.829,1872.311,738.489,1872.311,738.489z"/>
		<path style="fill:#D9935C;" d="M2005.667,1044.213c0,0,3.624,8.537,7.396,10.919c3.772,2.382,7.356,8.099,8.14,12.706
			c1.438,8.453-5.043,13.696-9.808,13.696c-4.764,0-9.318-6.497-12.119-22.01c-0.154-0.854-4.676-9.753-4.676-9.753
			L2005.667,1044.213z"/>
		<path style="fill:#D9935C;" d="M1961.999,1306.22c-4.235,45.187-22.88,74.415-22.88,74.415l-6.365,5.792
			c0,0-5.8-33.087-9.986-70.966c-3.988-36.004-9.461-74.104-15.646-85.736c-9.248-17.376-16.064-52.912-20.971-90.455
			c-8.11-62.128-10.985-129.768-10.985-129.768l74.669-3.703c7.513,12.624,10.78,33.333,11.559,56.877
			c0.819,24.755-1.131,52.648-3.834,77.577c-3.775,34.896-9.035,63.986-10.256,70.523c0,0.008,0,0.017-0.008,0.033
			c-0.164,0.859,0.09,1.72,0.491,2.499C1962.646,1242.717,1964.793,1276.361,1961.999,1306.22z"/>
		<path style="fill:#EE9849;" d="M1874.861,909.282c-1.68,41.017-7.815,81.632-25.673,79.019
			c-21.889-3.195-27.591-23.625-28.753-38.813c-0.722-9.453,0.318-16.875,0.318-16.875s10.773-0.049,12.518-1.655
			c8.274-7.642,5.816-82.599,9.912-90.381c4.096-7.782,30.67-12.779,30.67-12.779S1876.533,868.74,1874.861,909.282z"/>
		<path style="fill:#E58638;" d="M1874.861,909.282c-1.68,41.017-7.815,81.632-25.673,79.019
			c-21.889-3.195-27.591-23.625-28.753-38.813c5.373-0.271,14.835-1.581,18.595-7.314c5.382-8.208,22.175-61.047,22.175-61.047
			S1867.809,892.988,1874.861,909.282z"/>
		<path style="fill:#233862;" d="M1919.754,1312.561c-1.975,7.849-4.146,15.318-6.357,22.273c-0.476,1.491-0.942,2.958-1.418,4.391
			c-0.236,0.713-0.475,1.418-0.703,2.114c-0.468,1.376-0.926,2.728-1.385,4.047c-0.598,1.72-1.196,3.399-1.786,5.021
			c-0.435,1.204-0.868,2.384-1.294,3.538c-6.57,17.621-12.075,28.787-12.075,28.787l-13.091-0.901c0,0,4.916-23.38,5.898-56.868
			c0.032-1.195,0.065-2.4,0.09-3.621c0.049-2.597,0.082-5.242,0.082-7.945c0-1.106-0.008-2.229-0.016-3.359
			c-0.264-28.843-3.834-62.93-15.229-95.476c-9.265-26.46-15.982-51.216-20.841-73.589c7.783,1.605,14.636-0.033,34.521-1.703
			c2.089-0.176,12.083,12.197,21.954,28.573c0.507,23.052,11.82,34.627,11.82,34.627
			C1934.089,1232.96,1928.944,1276,1919.754,1312.561z"/>
		<path style="fill:#2B478B;" d="M1961.999,1306.22c-4.235,45.187-22.88,74.415-22.88,74.415l-6.365,5.792
			c0,0-5.8-33.087-9.986-70.966c-3.988-36.004-9.461-74.104-15.646-85.736c-9.248-17.376-16.064-52.912-20.971-90.455
			c6.873,2.858,30.262,10.289,71.408,0.983c-3.775,34.896-9.035,63.986-10.256,70.523c0,0.008,0,0.017-0.008,0.033
			c-0.164,0.859,0.09,1.72,0.491,2.499C1962.646,1242.717,1964.793,1276.361,1961.999,1306.22z"/>
		<path style="fill:#233862;" d="M1851.629,964.994c0,0,43.925,11.023,82.456-1.811c0,0,21.156,44.918,26.976,64.169
			c5.82,19.251,15.242,58.982,15.242,58.982s-78.233,24.165-142.539,0c0,0-2.934-52.938,5.496-80.535
			C1847.688,978.2,1851.629,964.994,1851.629,964.994z"/>
		<path style="fill:#EE9849;" d="M2010.848,985.573c0,10.306-10.511,16.638-21.791,19.718c-10.846,2.965-22.396,2.924-26.009,0.508
			c-6.234-4.178-16.392-50.625-19.357-64.766c-0.532-2.563-0.836-4.063-0.836-4.063s-8.103,19.333-8.356,21.136
			c-0.114,0.811-0.213,1.926-0.287,2.908c-0.081,1.188-0.13,2.171-0.13,2.171s-43.966,22.191-82.452,1.81
			c0,0-15.646-90.422-8.854-105.986c3.375-7.733,20.979-23.69,28.023-30.571c1.582-1.548,1.426-4.613,0.812-7.414
			c-0.508-2.367,1.621-4.448,3.965-3.843c4.531,1.181,12.682,0.976,21.414-1.891c4.35-1.418,8.839-3.499,13.091-6.4
			c1.237-0.843,2.916-0.064,3.104,1.418c0.663,5.39,2.294,15.237,5.268,15.237c4.096-0.024,32.047,3.407,34.094,6.864
			c0.713,1.204,7.979,17.646,17.154,39.428c0,0,0.008,0.017,0.017,0.058C1986.936,912.755,2010.848,972.392,2010.848,985.573z"/>
		<path style="fill:#E58638;" d="M1942.854,936.97c0,0-8.103,19.333-8.356,21.136c-0.114,0.811-0.213,1.926-0.287,2.908
			c-3.915,3.194-8.648,5.619-13.475,7.086c-13.705,4.153-19.66-22.118-18.841-35.225c0.818-13.107,20.2-50.519,26.656-51.298
			C1934.998,880.807,1942.854,936.97,1942.854,936.97z"/>
		<path style="fill:#E58638;" d="M1943.69,941.033c-0.532-2.563-0.836-4.063-0.836-4.063
			C1943.28,938.354,1943.559,939.706,1943.69,941.033z"/>
		<g>
			<path style="fill:#B64C41;" d="M1887.105,973.373c-25.017,0-34.943-7.021-35.706-7.607l-1.619-11.782
				c0.24,0.178,33.81,20.335,85.761,1.03l-1.101,8.926C1914.461,971.364,1900.101,973.373,1887.105,973.373z"/>
		</g>
		<path style="fill:#E58638;" d="M2010.848,985.573c0,10.306-10.511,16.638-21.791,19.718
			c15.549-18.514-18.473-130.537-19.341-133.397C1986.936,912.755,2010.848,972.392,2010.848,985.573z"/>
		<path style="fill:#E58638;" d="M1918.451,825.545c0,0-20.93,13.254-36.766,10.116c0,0-3.801-2.4,1.441-4.816
			c4.924-2.262,16.377-8.954,13.861-15.556c4.35-1.418,8.839-3.499,13.091-6.4c1.237-0.843,2.916-0.064,3.104,1.418
			C1913.847,815.697,1915.478,825.545,1918.451,825.545z"/>
		<g>
			<path style="fill:#233862;" d="M1902.271,1393.711h-8.355c-2.8-0.441-4.866-1.251-7.736-1.627
				c-4.36-0.57-6.366,1.215-6.767,1.627c-0.053,0.054-0.077,0.083-0.077,0.083h-35.496c-0.894-1.274-0.035-4.229,0.805-6.402
				c0.566-1.478,1.799-2.597,3.323-3.037c3.764-1.09,11.185-2.062,17.979-8.213c3.823-3.455,18.464-12.703,18.464-12.703
				l0.077-0.019c0.321,0.006,1.853,0.477,8.51,6.099c3.442,2.9,9.31-4.098,9.31-4.098s1.101,0.911,1.923,2.609
				c0.661,1.339,1.144,3.18,0.763,5.449c-0.53,3.197,1.18,9.142,2.543,13.161c0.827,2.437,1.524,4.163,1.524,4.163
				S1909.459,1392.811,1902.271,1393.711z"/>
			<path style="fill:#466AA5;" d="M1904.229,1368.03c-1.995,1.405-6.206,4.174-8.999,4.537c-3.77,0.495-10.82-9.129-10.82-9.129
				l0.077-0.019c0.321,0.006,1.853,0.477,8.51,6.099c3.442,2.9,9.31-4.098,9.31-4.098S1903.407,1366.332,1904.229,1368.03z"/>
			<path style="fill:#466AA5;" d="M1902.271,1393.711h-8.355c-2.8-0.441-4.866-1.251-7.736-1.627
				c-4.36-0.57-6.366,1.215-6.767,1.627c-0.053,0.054-0.077,0.083-0.077,0.083h-35.496c-0.894-1.274-0.035-4.229,0.805-6.402
				c1.078-0.959,1.382,4.162,1.977,4.979c0.596,0.816,28.956,0.298,30.595-0.894c1.638-1.19,6.551-3.274,13.4-1.638
				c5.962,1.424,14.746-2.228,16.92-3.198c0.827,2.437,1.524,4.163,1.524,4.163S1909.459,1392.811,1902.271,1393.711z"/>
		</g>
		<g>
			<path style="fill:#233862;" d="M1946.86,1393.711h-8.355c-2.8-0.441-4.866-1.251-7.737-1.627
				c-4.359-0.57-6.366,1.215-6.765,1.627c-0.054,0.054-0.077,0.083-0.077,0.083h-35.496c-0.894-1.274-0.035-4.229,0.804-6.402
				c0.565-1.478,1.8-2.597,3.323-3.037c3.764-1.09,11.185-2.062,17.98-8.213c3.823-3.455,18.463-12.703,18.463-12.703l0.076-0.019
				c0.322,0.006,1.853,0.477,8.512,6.099c3.442,2.9,9.309-4.098,9.309-4.098s1.102,0.911,1.924,2.609
				c0.66,1.339,1.143,3.18,0.762,5.449c-0.529,3.197,1.18,9.142,2.543,13.161c0.828,2.437,1.525,4.163,1.525,4.163
				S1954.049,1392.811,1946.86,1393.711z"/>
			<path style="fill:#466AA5;" d="M1948.82,1368.03c-1.996,1.405-6.206,4.174-8.999,4.537c-3.771,0.495-10.821-9.129-10.821-9.129
				l0.076-0.019c0.322,0.006,1.853,0.477,8.512,6.099c3.442,2.9,9.309-4.098,9.309-4.098S1947.998,1366.332,1948.82,1368.03z"/>
			<path style="fill:#466AA5;" d="M1946.86,1393.711h-8.355c-2.8-0.441-4.866-1.251-7.737-1.627
				c-4.359-0.57-6.366,1.215-6.765,1.627c-0.054,0.054-0.077,0.083-0.077,0.083h-35.496c-0.894-1.274-0.035-4.229,0.804-6.402
				c1.078-0.959,1.382,4.162,1.978,4.979s28.956,0.298,30.595-0.894c1.638-1.19,6.551-3.274,13.4-1.638
				c5.96,1.424,14.745-2.228,16.919-3.198c0.828,2.437,1.525,4.163,1.525,4.163S1954.049,1392.811,1946.86,1393.711z"/>
		</g>
	</g>
	<g>
		<path style="fill:#F99746;" d="M2288.431,1221.533c-5.038,12.878-30.835,39.396-57.425,64.438
			c-31.752,29.917-64.635,57.729-64.635,57.729s-15.031,4.587-8.478-17.53c0,0,36.249-66.601,51.813-86.262
			c4.447-5.611,9.044-10.739,13.354-15.204c10.763-11.166,19.676-18.152,19.676-18.152s-2.04-3.277-5.35-8.946
			c-16.178-27.705-62.618-112.54-48.274-150.207c17.269-45.374,60.187-65.812,60.187-65.812s13.615,57.417,25.1,116.439
			C2284.965,1152.328,2293.73,1207.992,2288.431,1221.533z"/>
		<path style="fill:#ED7D2B;" d="M2274.398,1098.024c-7.906,36.348-21.594,87.768-37.012,99.58
			c-16.178-27.705-62.618-112.54-48.274-150.207c17.269-45.374,60.187-65.812,60.187-65.812S2262.914,1039.002,2274.398,1098.024z"
			/>
		<path style="fill:#ED7D2B;" d="M2231.006,1285.971c-31.752,29.917-64.635,57.729-64.635,57.729s-15.031,4.587-8.478-17.53
			c0,0,36.249-66.601,51.813-86.262c4.447-5.611,9.044-10.739,13.354-15.204C2222.552,1241.702,2223.035,1270.545,2231.006,1285.971
			z"/>
		<path style="fill:#FFB27D;" d="M2268.213,1067.261c0,0-37.617-94.413-35.635-97.14c1.229-1.705,3.621-53.215,5.251-91.922
			c0.991-23.544,1.704-42.359,1.704-42.359s16.671,5.939,20.66,46.488c0.77,7.823,1.221,15.188,1.49,22.061
			c1.122,28.777-0.982,49.045,3.317,58.629c5.325,11.878,3.416,66.084,5.056,71.54
			C2271.694,1040.022,2280.165,1053.67,2268.213,1067.261z"/>
		<path style="fill:#F99746;" d="M2238.475,1004.346l-3-11.062c-21.12,9.138-83.211-4.225-83.211-4.225s-18.501,21.923-8.977,66.402
			c4.648,21.709,21.096,114.458,27.829,141.624c2.438,9.846,4.327,16.829,5.089,19.618c0.01,0.012,0.011,0.019,0.012,0.026
			c0.232,0.851,0.053,1.713-0.273,2.535c-2.86,7.084-5.021,14.337-6.587,21.663c-15.36,71.969,26.72,151.46,26.72,151.46
			l7.195-4.233c0,0,2.801-95.9,10.263-139.199c1.269-7.345,2.665-13.177,4.207-16.767c4.497-10.464,7.659-26.934,9.869-46.288
			c4.173-36.593,4.918-83.495,4.685-119.577C2232.998,1066.252,2238.475,1004.346,2238.475,1004.346z"/>
		<path style="fill:#FFB27D;" d="M2143.188,1016.077c-8.584-12.992,20.873-66.075,19.825-71.081
			c-2.065-9.862-6.914-20.791-11.665-30.613c-4.76-9.822-9.413-18.546-11.076-24.01c1.533-2.131,3.031-4.13,4.416-6.014
			c2.113-2.899,3.948-5.561,5.129-8.052c1.311-2.712,1.866-5.243,1.236-7.685c-0.484-1.852-1.14-3.694-1.926-5.497
			c-0.368-0.852-0.762-1.694-1.18-2.53c-4.383-8.782-10.936-15.926-10.936-15.926c10.368-6.647,26.714-10.035,26.86-9.543
			c1.213-0.401,2.286-0.689,3.154-0.91c0.599-0.154,1.213-0.303,1.818-0.441c2.057-0.492,4.128-0.918,5.915-1.246
			c3.728-3.735,8.176-17.58,6.841-37.977l1.802,0.236l30.212,4.08c0,0-0.099,9.445,0.417,18.293
			c0.41,6.922,1.205,13.476,2.721,14.909c2.342,0.189,3.751,0.327,3.751,0.327s0,0.009,0.017,0.025
			c0.008,0.018,0.025,0.042,0.05,0.066c1.703,0.139,3.268,0.286,4.702,0.45c0,0,0.122,0.009,0.344,0.033
			c2.653,0.302,4.85,0.631,6.644,0.949c0.131,0.033,0.254,0.058,0.368,0.074c5.162,0.951,6.906,1.844,6.906,1.844v0.089
			c-0.254,9.519,15.114,26.166,14.041,47.702c-0.041,0.81-7.856,57.253-7.823,58.088c0.631,16.073,8.503,61.334,8.503,61.334
			C2261.438,1017.06,2147.809,1029.446,2143.188,1016.077z"/>
		<path style="fill:#2C3A64;" d="M2171.141,721.997c-0.556-1.563-7.146-18.217-33.378-10.933c0,0,13.241-2.498,17.213,2.418
			c0,0-10.874-4.195-17.248,0.263c-6.374,4.459-6.625,18.167-5.382,22.257c1.242,4.091,9.314,15.999,14.158,15.702
			c1.834-0.112,3.758-0.843,5.441-1.707c-0.607,2.242-1.13,4.67-1.526,7.321c-3.66,24.518,13.563,41.932,21.606,36.875
			c5.16-3.244,9.772,5.85,9.772,5.85l40.697-61.429C2222.495,738.614,2189.354,703.416,2171.141,721.997z"/>
		<path style="fill:#ED985F;" d="M2213.617,798.878c0,0-0.104,9.437,0.42,18.288c-16.734,0.553-26.499-14.146-30.635-22.37
			L2213.617,798.878z"/>
		<path style="fill:#FFB27D;" d="M2219.711,806.917c0,0-39.484,3.073-41.021-21.544c-1.536-24.618-7.667-40.802,17.479-43.806
			c25.144-3.003,30.633,6.085,33.145,14.177C2231.824,763.837,2229.941,805.483,2219.711,806.917z"/>
		<path style="fill:#2C3A64;" d="M2227.299,742.128c-6.563-7.031-11.08-5.123-13.531-2.738c-22.33-10.553-35.176,7.859-35.176,7.859
			c-1.561,17.827-13.679,28.728-13.679,28.728s7.476,4.009,23.822-1.28c4.993-1.615,9.302-5.498,12.883-10.107
			c-6.03,11.679-14.682,20.356-14.682,20.356c19.276-10.387,25.552-38.466,26.167-41.432c2.545,2.02,7.589,6.435,9.322,10.959
			c2.354,6.148,4.031,19,7.767,18.331C2230.192,772.804,2237.142,752.672,2227.299,742.128z"/>
		<path style="fill:#233862;" d="M2243.251,1394.661h-61.271c0,0-2.291-9.771,1.732-16.422c3.561-5.884,1.366-9.876-0.171-14.879
			c2.775,1.136,6.097,2.945,10.049,2.719c3.053-0.176,7.837-2.417,10.668-4.062c2.637,3.008,12.373,16.66,15.901,19.195
			C2224.164,1384.09,2242.018,1383.065,2243.251,1394.661z"/>
		<path style="fill:#233862;" d="M2152.182,1393.227l-23.059-56.767c0,0,8.191-5.8,15.866-4.575
			c6.792,1.084,9.384-1.441,12.901-5.717c-0.008,2.999,0.386,6.715,2.083,10.292c1.312,2.763,3.81,5.232,6.397,7.235
			c-1.792,3.575-9.398,18.853-10.42,23.076C2154.793,1371.563,2162.462,1387.72,2152.182,1393.227z"/>
		<path style="fill:#2B478B;" d="M2245.752,941.723c-0.019-0.466,2.401-18.205,4.554-33.959c4.743-0.522,10.479-1.633,15.45-3.961
			c-0.271-6.873-4.847-65.671-29.564-68.981c-1.178-0.32-2.393-0.593-3.564-0.821c-0.114-0.017-0.236-0.041-0.368-0.074
			c-3.03-0.566-5.718-0.859-6.644-0.95c-0.221-0.024-0.344-0.033-0.344-0.033s7.373,20.922,7.225,23.38
			c-0.139,2.458-23.813,3.277-39.378,3.482c-15.441,0.204-24.133-25.625-24.272-26.026c-0.605,0.14-1.221,0.286-1.818,0.442
			c-0.868,0.221-21.512,3.366-30.016,10.453c0,0,6.555,7.143,10.937,15.925c0.418,0.835,0.811,1.68,1.179,2.531
			c0.787,1.803,1.443,3.645,1.927,5.496c0.63,2.441,0.073,4.974-1.237,7.685c-1.18,2.489-3.015,5.152-5.129,8.052
			c-1.384,1.885-2.883,3.884-4.415,6.013c0.565,1.877,1.491,4.146,2.654,6.701v0.009c2.22,4.891,5.3,10.862,8.421,17.302
			c4.752,9.822,9.602,20.75,11.665,30.612c1.05,5.006-28.409,58.089-19.824,71.082c1.368,3.947,12.256,5.652,26.73,5.725
			c34.504,0.18,89.398-8.88,84.335-18.752C2254.254,1003.055,2246.382,957.796,2245.752,941.723z"/>
		<path style="fill:#233862;" d="M2169.919,1021.807c-14.475-0.073-25.362-1.778-26.73-5.725
			c-8.585-12.993,20.874-66.076,19.824-71.082c-2.063-9.862-6.913-20.79-11.665-30.612c-3.121-6.439-6.201-12.411-8.421-17.302
			v-0.008c1.221-4.808,1.933-7.61,1.933-7.61s31.351,36.454,38.543,53.656C2189.038,956.615,2175.865,1002.58,2169.919,1021.807z"/>
		<path style="fill:#FFB27D;" d="M2155.018,997.092l-6.201,10.748c-39.869-15.794-65.265-51.371-65.265-51.371
			c-1.393-20.202,8.062-43.426,19.383-63.463c1.876-3.318,3.8-6.545,5.741-9.658c8.004,6.84,19.194,15.794,29.844,22.307
			c-1.654,2.744-3.637,6.029-5.775,9.543c-8.839,14.574-20.267,33.235-21.749,34.718
			C2108.537,952.372,2155.018,997.092,2155.018,997.092z"/>
		<path style="fill:#2B478B;" d="M2134.378,919.571c-19.628-1.294-34.098-26.827-34.098-26.827
			c15.326-27.092,36.731-48.074,36.731-48.074C2191.414,865.438,2143.253,913.71,2134.378,919.571z"/>
		<path style="fill:#FFB27D;" d="M2155.014,997.085c0,0,3.356-0.479,5.541-2.391c2.186-1.911,9.148-7.309,9.558-5.635
			c0.409,1.675-5.052,4.269-2.185,4.679c2.867,0.409,7.372-1.514,11.879-0.825c4.504,0.689,11.437,11.065,9.303,12.293
			c-2.135,1.229-9.918-2.866-11.966-1.433c-2.048,1.433-16.663,9.426-28.33,4.066
			C2137.146,1002.479,2155.014,997.085,2155.014,997.085z"/>
	</g>
	<g>
		<path style="fill:#2C3A64;" d="M1553.474,763.915c0,0-28.392-1.423-29.19-17.807c-0.798-16.383-24.246-28.332-17.455-41.484
			c8.329-16.132,0.732-31.638,11.247-42.483c11.585-11.95,26.224-5.46,33.945-12.423c7.722-6.964,21.846-13.38,35.771-4.779
			c13.927,8.602,24.557,3.972,33.711,12.255c10.113,9.153,6.28,20.674,14.621,26.93c7.646,5.734,4.528,21.402-1.911,34.133
			c-4.643,9.177,6.057,17.776-12.31,28.322c-7.645,4.388-5.985,15.433-29.196,17.337
			C1582.253,764.773,1559.567,759.877,1553.474,763.915z"/>
		<path style="fill:#233862;" d="M1499.299,1394.661c0,0,0-11.496,1.638-15.319c1.639-3.822,7.646-19.387,7.646-19.387h23.484
			c0,0,4.368,14.199,4.642,18.841c0.273,4.643,0,15.865,0,15.865H1499.299z"/>
		<path style="fill:#233862;" d="M1648.401,1394.661c0,0,0-11.496-1.638-15.319c-1.639-3.822-7.646-19.387-7.646-19.387h-23.483
			c0,0-4.369,14.199-4.642,18.841c-0.273,4.643,0,15.865,0,15.865H1648.401z"/>
		<path style="fill:#B56F40;" d="M1554.32,749.385c0,0-0.827,25.6-4.104,37.069l-25.934,18.09l97.62,14.608l-23.281-32.166
			c0,0-7.028-34.324-3.343-47.022C1598.967,727.268,1554.32,749.385,1554.32,749.385z"/>
		<path style="fill:#99592E;" d="M1554.179,752.921c0-0.008,7.719,18.582,22.26,18.173c14.541-0.409,17.851-16.852,17.851-16.852
			L1554.179,752.921z"/>
		<path style="fill:#B56F40;" d="M1574.772,763.913c-10.536-0.186-29.928-14.215-29.928-31.588v-27.109
			c0-6.345,4.424-11.535,9.83-11.535h40.195c5.407,0,9.83,5.19,9.83,11.535v25.575
			C1604.7,749.008,1586.856,764.126,1574.772,763.913z"/>
		<path style="fill:#EE9849;" d="M1502.242,996.519c0,0,4.108,125.464-2.035,197.05c-6.144,71.587,0.045,171.212,0.045,171.212
			s19.648,10.834,40.947,0c0,0,23.358-138.298,23.211-171.212c-0.158-35.052,25.423-191.58,25.423-191.58L1502.242,996.519z"/>
		<path style="fill:#EE9849;" d="M1647.553,1364.776c0,0-19.645,10.839-40.943,0c0,0-23.355-138.296-23.207-171.21
			c0.064-14.803-4.457-51.282-9.708-88.473c-7.184-50.88-15.72-103.104-15.72-103.104l90.986-5.684c0,0-7.503,125.681-1.359,197.261
			C1653.745,1265.155,1647.553,1364.776,1647.553,1364.776z"/>
		<path style="fill:#B64C41;" d="M1631.808,793.056l0.002,0.055c-11.812-2.973-22.918-4.93-33.188-6.124
			c-9.061,12.034-15.564,14.827-23.847,18.103c-13.328-1.843-24.559-18.26-24.559-18.636c-14.521,1.487-24.312,4.151-28.295,5.389
			c-0.79,0.094-43.379,5.72-103.661,128.425c0,0,3.245,11.297,19.055,30.999c11.248,14.008,28.868,32.275,56.196,53.747
			c0,0,2.581-5.514,4.932-14.436c0,0-16.244-31.611-26.025-53.018c-4.752-10.42-7.979-18.415-7.053-19.185
			c1.76-1.463,21.412-18.524,35.922-31.131c-0.116,3.151-0.148,6.016-0.074,8.505c0.786,27.41,1.892,54.051-1.639,83.557
			c-4.646,38.773,3.22,38.085,3.22,38.085s10.583,2.072,25.346,4.03c13.353,1.786,30.122,3.48,45.555,3.48
			c35.39,0,74.177-7.511,74.177-7.511c11.166,0.14-3.129-69.476-5.217-111.361c-0.484-9.728-0.936-18.604-1.355-26.719
			c13.34,11.585,42.879,37.252,45.059,39.064c0.926,0.77-2.302,8.765-7.054,19.185c-9.78,21.406-26.025,53.018-26.025,53.018
			c2.351,8.922,4.932,14.436,4.932,14.436c27.328-21.472,44.949-39.739,56.196-53.747c15.811-19.702,19.055-30.999,19.055-30.999
			C1672.611,796.406,1631.808,793.056,1631.808,793.056z"/>
		<path style="fill:#AA413E;" d="M1528.14,1021.422c-14.763-1.958-25.346-4.03-25.346-4.03s-7.864,0.688-3.22-38.085
			c3.53-29.506,2.425-56.146,1.639-83.557c-0.091-3.047-0.024-6.652,0.163-10.666c2.262,3.621,27.46,44.318,34.242,74.563
			C1540.558,981.707,1533.112,1007.692,1528.14,1021.422z"/>
		<path style="fill:#E58638;" d="M1583.402,1193.566c0.064-14.803-4.457-51.282-9.708-88.473
			c5.447-22.217,18.719-43.598,18.719-43.598C1609.206,1108.6,1583.402,1193.566,1583.402,1193.566z"/>
		<path style="fill:#B56F40;" d="M1495.203,992.139c0,0,14.744-13.653,20.752-6.008c6.008,7.646,7.1,19.66,2.458,18.842
			c-4.643-0.82-14.2-5.188-15.564-3.004c-1.365,2.183-7.482,6.36-9.339,3.044C1491.652,1001.695,1495.203,992.139,1495.203,992.139z
			"/>
		<path style="fill:#B56F40;" d="M1498.443,990.58c-2.351,8.92-4.932,14.434-4.932,14.434
			c-27.328-21.472-44.948-39.739-56.196-53.747c8.479-0.631,20.856-3.662,35.103-13.706
			C1482.199,958.967,1498.443,990.58,1498.443,990.58z"/>
		<path style="fill:#B56F40;" d="M1656.517,992.139c0,0-14.745-13.653-20.752-6.008c-6.008,7.646-7.101,19.66-2.458,18.842
			c4.642-0.82,14.199-5.188,15.564-3.004c1.365,2.183,7.482,6.36,9.339,3.044C1660.066,1001.695,1656.517,992.139,1656.517,992.139z
			"/>
		<path style="fill:#B56F40;" d="M1653.275,990.58c2.352,8.92,4.932,14.434,4.932,14.434c27.328-21.472,44.949-39.739,56.197-53.747
			c-8.479-0.631-20.857-3.662-35.103-13.706C1669.52,958.967,1653.275,990.58,1653.275,990.58z"/>
		<path style="fill:#AA413E;" d="M1686.357,918.376c-2.188-1.818-31.932-27.664-45.203-39.189c0,0,13.247-9.93,21.438,4.546
			C1670.785,898.207,1686.357,918.376,1686.357,918.376z"/>
		<path style="fill:#AA413E;" d="M1733.461,920.268c0,0-3.244,11.297-19.055,30.999
			C1696.106,951.013,1733.461,920.268,1733.461,920.268z"/>
		<path style="fill:#2C3A64;" d="M1544.845,716.208c0,0,7.313-22.322,31.274-18.841c23.961,3.481,26.035,8.601,28.581,14.541
			c2.548,5.938,7.463-21.71,7.463-21.71l-28.262-8.396c0,0-34.202,3.89-36.659,9.625c-2.458,5.734-2.458,5.734-2.458,5.734
			L1544.845,716.208z"/>
		<g>
			<path style="fill:#2C3A64;" d="M1560.112,732.861c-4.134,0-12.411-0.919-13.859-8.107c-0.438-2.175-0.028-4.109,1.186-5.594
				c1.339-1.634,3.545-2.571,6.054-2.571h12.718c2.419,0,4.108,0.694,5.021,2.066c1.536,2.309,0.357,5.772-0.221,7.153
				c-1.979,4.731-4.703,6.938-8.575,6.946C1562.271,732.773,1561.39,732.861,1560.112,732.861z M1553.492,717.425
				c-2.257,0-4.229,0.825-5.406,2.266c-1.051,1.282-1.4,2.978-1.014,4.898c0.744,3.688,3.514,6.044,8.234,7.004
				c3.596,0.732,7.021,0.333,7.057,0.33l0.049-0.003c3.503,0,5.989-2.045,7.827-6.434c0.41-0.981,1.645-4.341,0.294-6.368
				c-0.747-1.124-2.202-1.693-4.323-1.693H1553.492z"/>
		</g>
		<g>
			<path style="fill:#2C3A64;" d="M1589.444,732.861c-1.277,0-2.159-0.088-2.322-0.106c-3.87-0.009-6.595-2.216-8.575-6.946
				c-0.578-1.382-1.756-4.845-0.221-7.153c0.913-1.372,2.603-2.066,5.021-2.066h12.717c2.51,0,4.715,0.938,6.054,2.571
				c1.214,1.484,1.624,3.419,1.186,5.595C1601.855,731.941,1593.579,732.861,1589.444,732.861z M1583.348,717.425
				c-2.122,0-3.577,0.569-4.324,1.693c-1.35,2.027-0.115,5.387,0.295,6.368c1.838,4.389,4.323,6.434,7.826,6.434l0.05,0.003
				c0.035,0.004,3.46,0.401,7.055-0.33c4.722-0.96,7.492-3.316,8.235-7.003c0.388-1.922,0.037-3.617-1.014-4.899
				c-1.178-1.44-3.148-2.266-5.406-2.266H1583.348z"/>
		</g>
		<g>
			<path style="fill:#2C3A64;" d="M1570.224,722.468c-0.189,0-0.37-0.108-0.456-0.292c-0.113-0.252-0.003-0.549,0.248-0.664
				c0.21-0.096,5.195-2.327,9.616,0.014c0.243,0.129,0.337,0.432,0.207,0.677c-0.128,0.244-0.433,0.336-0.677,0.208
				c-3.99-2.113-8.684-0.009-8.73,0.013C1570.364,722.453,1570.294,722.468,1570.224,722.468z"/>
		</g>
	</g>
	<g>
		<g>
			<path style="fill:#F4A671;" d="M1489.472,1011.695l-11.637,2.154c0,0-31.844-49.094-32.759-64.063
				c-0.882-14.295-29.579-76.853,4.016-115.911c1.515-1.771,3.16-3.492,4.948-5.155c0.059-0.066,0.125-0.125,0.191-0.183
				c0,0,0.058,0.091,0.166,0.274c0.683,1.139,3.352,5.962,6.479,16.622c4.897,16.664,10.951,47.599,12.382,101.026
				C1473.258,946.461,1481.073,992.204,1489.472,1011.695z"/>
			<path style="fill:#F4A671;" d="M1489.472,1011.695c0,0,12.47,14.068,12.852,19.772c0.382,5.703-4.552,12.885-10.094,14.11
				c-5.544,1.227-2.082-7.571-2.913-11.104c-0.832-3.533-4.454-8.893-4.235-7.296c0.221,1.598,2.435,7.885,1.75,8.889
				c-0.685,1.005-2.473,1.167-3.149-2.19c-0.678-3.358-6.263-7.274-5.166-10.876c1.096-3.601,0.197-6.376-1.314-11.205
				c-1.513-4.83-4.044-10.626-4.044-10.626l8.987-1.917L1489.472,1011.695z"/>
		</g>
		<path style="fill:#2C3A64;" d="M1405.3,757.601c0,0-0.276,5.937,3.284,7.099c3.561,1.161-3.669,13.976-3.102,22.629
			c0.567,8.654,4.396,12.127,4.396,12.127s-1.839-4.76-0.811-7.703c0,0-0.164,6.123,4.307,9.212
			c4.471,3.087,3.269,5.758,3.269,5.758s10.104-3.025,10.388-10.604c0,0,0.434,3.425,0.085,4.845c0,0,8.724-6.552,9.142-14.1
			c0.416-7.548-6.869-13.918-10.187-14.033s-10.721-6.63-10.521-9.092S1405.3,757.601,1405.3,757.601z"/>
		<path style="fill:#E2AF64;" d="M1433.224,715.18c-5.879-8.928-29.223-3.933-52.139,11.159
			c-22.915,15.092-36.726,34.563-30.846,43.49c5.879,8.928,29.223,3.932,52.138-11.16S1439.104,724.106,1433.224,715.18z"/>
		<path style="fill:#2B478B;" d="M1483.621,1373.915l-12.356,4.602c0,0-53.673-74.441-60.281-139.937
			c-1.18-11.692-0.787-23.022,1.766-33.484c0,0-0.524-2.996-1.442-8.293c-0.424-2.472-0.949-5.447-1.544-8.857
			c-1.745-9.998-4.146-23.679-6.89-39.255c-6.316-35.846-14.498-81.667-20.854-115.354l3.33-1.07l36.026-11.622l7.445-23.647
			l26.826-7.062c0,0,5.991,11.723,11.349,67.1c0.989,7.264,1.888,15.274,2.563,23.96c2.088,26.514,2.239,59.402-2.553,97.003
			c-1.23,9.624-2.785,19.562-4.712,29.771c-1.412,7.485-1.624,17.685-1.028,29.398
			C1463.969,1290.708,1483.621,1373.915,1483.621,1373.915z"/>
		<path style="fill:#233862;" d="M1469.559,1080.995l-58.252,115.808c-0.424-2.472-0.949-5.447-1.544-8.857
			c-1.745-9.998-4.146-23.679-6.89-39.255c-6.316-35.846-14.498-81.667-20.854-115.354l3.33-1.07l36.026-11.622l7.445-23.647
			l32.044-9.53c0,0,0.773,14.191,6.131,69.568C1467.984,1064.299,1468.883,1072.31,1469.559,1080.995z"/>
		<path style="fill:#2C3A64;" d="M1420.321,716.194l-41.193,62.498c0,0-4.709-9.227-9.94-5.917
			c-8.16,5.156-25.691-12.493-22.035-37.412c0.241-1.63,0.526-3.177,0.845-4.647c8.219-11.841,17.347-25.025,23.896-34.295
			C1390.81,684.996,1420.321,716.194,1420.321,716.194z"/>
		<path style="fill:#FFB27D;" d="M1438.424,842.447c-5.764,5.281-13.25,10.009-22.953,13.683
			c-36.376,13.784-55.085-15.999-63.454-37.052c4.724-3.628,9.454-4.929,12.192-5.64c2.671-0.689,5.497-1.291,7.845-1.728
			c3.778-3.804,8.264-17.878,6.862-38.592l1.831,0.232l30.699,4.076c0,0-0.077,9.593,0.469,18.575
			c0.434,7.03,1.257,13.691,2.796,15.139c2.378,0.188,3.809,0.325,3.809,0.325s0.003,0.01,0.019,0.026
			C1419.024,812.09,1429.531,825.043,1438.424,842.447z"/>
		<path style="fill:#ED985F;" d="M1411.449,777.433c0,0-0.083,9.585,0.469,18.575c-16.997,0.602-26.95-14.305-31.171-22.65
			L1411.449,777.433z"/>
		<path style="fill:#FFB27D;" d="M1417.657,785.583c0,0-40.101,3.217-41.72-21.786c-1.619-25.003-7.885-41.428,17.649-44.539
			c25.534-3.11,31.132,6.107,33.702,14.321C1429.859,741.794,1428.046,784.102,1417.657,785.583z"/>
		<path style="fill:#2C3A64;" d="M1425.211,719.753c-6.685-7.127-11.269-5.178-13.752-2.749
			c-22.709-10.666-35.712,8.068-35.712,8.068c-1.544,18.112-13.827,29.213-13.827,29.213s7.604,4.054,24.196-1.358
			c5.066-1.653,9.435-5.607,13.062-10.298c-6.098,11.877-14.864,20.712-14.864,20.712c19.556-10.596,25.862-39.133,26.479-42.148
			c2.592,2.045,7.727,6.518,9.497,11.109c2.406,6.241,4.141,19.291,7.933,18.603C1428.223,750.906,1435.234,730.44,1425.211,719.753
			z"/>
		<path style="fill:#233862;" d="M1522.294,1394.661h-62.238c0,0-2.327-9.927,1.759-16.682c3.617-5.977,2.231-9.382-0.447-14.325
			c2.819,1.152,6.466,2.203,10.482,1.974c3.102-0.179,6.38-1.587,9.256-3.256c2.679,3.054,14.148,16.053,17.732,18.629
			C1502.905,1383.923,1521.041,1382.882,1522.294,1394.661z"/>
		<path style="fill:#EDBD77;" d="M1346.296,747.667c0,0-18.648-37.12,7.411-51.795c26.061-14.673,45.135-8.911,59.473,9.034
			L1346.296,747.667z"/>
		<path style="fill:#F99746;" d="M1464.979,848.977c-4.991-24.967-20.453-32.117-20.453-32.117s-2.571-3.895-16.935-4.508
			c-2.237-0.093-4.68-0.556-7.4-0.773c-0.544-0.037-1.099-0.079-1.669-0.115c0,0,0.003,0.007,0.018,0.028
			c0.546,0.839,15.037,23.118,14.233,29.107c-0.82,6.097-53.57,4.011-57.393,0.932c-3.065-2.481-8.388-19.025-10.373-25.497
			c-0.503-1.611-0.8-2.6-0.8-2.6s-18.419,3.214-27.08,10.389c0,0,6.628,7.273,11.056,16.215c0.418,0.854,0.82,1.704,1.191,2.571
			c0.791,1.834,1.448,3.711,1.932,5.591c0.633,2.485,0.06,5.049-1.281,7.805c-1.206,2.52-3.078,5.227-5.234,8.163
			c-1.419,1.906-2.949,3.928-4.505,6.089c1.095,3.64,2.523,8.001,4.107,12.935c3.258,10.15,7.134,22.688,9.903,36.186
			c1.039,5.088,0.903,10.322-0.348,15.31c-0.494,1.989-1.166,3.939-2.006,5.827c-1.314,2.948-1.641,7.01-3.117,10.821
			c-6.026,15.611-12.984,35.981-6.013,46.617c4.65,13.6,112.358-19.425,105.108-33.684c0,0,4.295-74.809,7.258-97.98
			c0.097-0.851,0.176-1.67,0.22-2.495c0.068-1.303,0.063-2.584-0.005-3.844C1464.729,855.696,1464.979,848.977,1464.979,848.977z"/>
		<path style="fill:#FFCF83;" d="M1451.283,700.831c-5.365-8.601-24.128-7.214-46.78,2.063c-8.849,3.622-18.282,8.45-27.751,14.354
			c-11.769,7.341-22.024,15.378-30.067,23.237c-14.992,14.663-22.312,28.705-17.457,36.49c5.397,8.643,24.331,7.192,47.154-2.21
			c-1.855-2.02-4.456-3.724-7.194-1.99c-2.805,1.771-6.728,0.846-10.507-2.152c-2.789-0.457-4.856-1.58-5.99-3.392
			c-0.849-1.355-1.109-2.999-0.856-4.867c1.162-8.676,13.461-22.152,31.12-33.168c13.567-8.462,27.054-13.442,36.341-14.036
			c5.4-0.353,9.382,0.781,11.128,3.585c1.509,2.418,1.175,5.787-0.678,9.683c1.018,4.082,1.006,8.413,0.61,12.169
			C1447.67,724.785,1456.506,709.197,1451.283,700.831z"/>
		<path style="fill:#ED7D2B;" d="M1390.66,942.754c-15.512,4.971-30.617,7.105-42.602,7.971c1.477-3.81,2.57-7.264,3.885-10.212
			c0.839-1.889,1.512-3.839,2.006-5.827c1.252-4.987,1.387-10.222,0.348-15.31c-2.77-13.499-10.12-36.529-13.378-46.68
			c8.702-19.41,17.695-8.823,17.695-8.823s26.304,11.797,37.502,33.542C1407.314,919.161,1404.046,938.465,1390.66,942.754z"/>
		<path style="fill:#2B478B;" d="M1357.087,814.922c0,0,25.048,16.006,31.454,49.755l7.575-2.405c0,0-2.933-24.091-31.907-48.833
			L1357.087,814.922z"/>
		<path style="fill:#2B478B;" d="M1445.557,865.533l-7.932,0.521c1.588-29.262-13.097-49.237-17.438-54.473
			c2.722,0.218,5.188,0.481,7.4,0.773C1448.361,842.411,1445.557,865.533,1445.557,865.533z"/>
		<path style="fill:#2B478B;" d="M1455.399,992.36l5.627-2.425l-5.527-83.849c0,0-5.373-38.126-5.453-44.789
			c-0.08-6.663-5.46-9.912-5.46-9.912s-39.487,2.083-50.616,2.708c-11.131,0.626-10.013,6.96-10.013,6.96s4.854,20.259,5.344,22.344
			c7.493,31.839-35.354,51.291-35.354,51.291s-6.95,17.987-12.343,35.215c-9.244,29.538-0.989,71.916-0.989,71.916
			c1.403,22.51,3.966,118.158,6.641,146.462c0.968,10.259,1.814,17.559,2.161,20.475c0.007,0.014,0.007,0.021,0.007,0.027
			c0.105,0.891-0.205,1.729-0.657,2.507c-3.939,6.686-7.201,13.647-9.877,20.771c-26.264,69.986,4.046,156.175,4.046,156.175
			l7.864-3.169c0,0,17.248-95.918,31.263-138.293c2.379-7.187,4.659-12.836,6.749-16.21c6.092-9.835,11.748-25.903,16.88-45.015
			c9.701-36.133,17.51-83.138,22.706-119.419c0.717,0.032,8.188-50.853,26.911-73.284
			C1455.475,992.644,1455.497,992.484,1455.399,992.36z"/>
		<g>
			<g>
				<path style="fill:#ED7D2B;" d="M1388.229,861.733c-0.555-1.751,0.413-3.62,2.164-4.177c1.751-0.557,3.62,0.412,4.177,2.163
					c0.556,1.752-0.412,3.621-2.163,4.177C1390.654,864.452,1388.785,863.484,1388.229,861.733z"/>
				<path style="fill:#F99746;" d="M1388.798,861.553c-0.556-1.751,0.413-3.621,2.164-4.177c1.751-0.557,3.621,0.412,4.178,2.163
					c0.555,1.751-0.413,3.621-2.165,4.177C1391.225,864.271,1389.354,863.304,1388.798,861.553z"/>
			</g>
			<path style="fill:#2B478B;" d="M1389.907,860.542c0.001-0.267,0.217-0.482,0.484-0.482c0.267,0,0.482,0.218,0.481,0.484
				c0,0.267-0.217,0.483-0.483,0.483C1390.123,861.026,1389.907,860.809,1389.907,860.542z"/>
			<path style="fill:#2B478B;" d="M1393.063,860.548c0-0.268,0.218-0.482,0.484-0.482s0.482,0.217,0.482,0.483
				c0,0.268-0.218,0.482-0.484,0.482S1393.063,860.815,1393.063,860.548z"/>
		</g>
		<g>
			<g>
				<path style="fill:#ED7D2B;" d="M1437.189,857.507c-0.557-1.75,0.412-3.62,2.163-4.176c1.751-0.557,3.621,0.412,4.177,2.162
					c0.557,1.752-0.412,3.621-2.163,4.178C1439.615,860.227,1437.745,859.259,1437.189,857.507z"/>
				<path style="fill:#F99746;" d="M1437.759,857.326c-0.556-1.75,0.412-3.621,2.164-4.176c1.75-0.557,3.62,0.412,4.177,2.162
					c0.556,1.751-0.413,3.621-2.164,4.177C1440.186,860.046,1438.314,859.078,1437.759,857.326z"/>
			</g>
			<path style="fill:#2B478B;" d="M1438.867,856.316c0.001-0.267,0.218-0.483,0.484-0.482c0.267,0,0.483,0.218,0.482,0.484
				c0,0.267-0.217,0.482-0.484,0.482C1439.083,856.801,1438.867,856.583,1438.867,856.316z"/>
			<path style="fill:#2B478B;" d="M1442.024,856.321c0-0.267,0.217-0.482,0.483-0.482c0.268,0,0.483,0.218,0.482,0.483
				c0,0.267-0.217,0.483-0.483,0.483S1442.023,856.589,1442.024,856.321z"/>
		</g>
		<path style="fill:#2C3A64;" d="M1351.834,762.363c0,0-0.275,5.938,3.285,7.099c3.562,1.161-3.668,13.977-3.102,22.63
			s4.396,12.128,4.396,12.128s-1.838-4.762-0.811-7.704c0,0-0.164,6.122,4.307,9.211c4.471,3.088,3.27,5.759,3.27,5.759
			s10.104-3.026,10.388-10.606c0,0,0.433,3.426,0.084,4.845c0,0,8.725-6.551,9.141-14.1c0.417-7.548-6.868-13.918-10.187-14.033
			c-3.316-0.115-10.72-6.629-10.521-9.092C1362.284,766.038,1351.834,762.363,1351.834,762.363z"/>
		<path style="fill:#FFB27D;" d="M1351.879,961.249c0,0,12.001,7.573,13.76,7.507c4.118-0.153,12.247-9.148,19.016-4.99
			c6.767,4.159,13.396,11.09,11.052,13.862c-2.344,2.772-10.292-0.499-14.104,0.056c-3.813,0.555-13.211,5.227-19.844,3.028
			c-6.377-2.114-20.154-10.809-20.154-10.809L1351.879,961.249z"/>
		<path style="fill:#FFB27D;" d="M1337.128,823.821c0,0-44.679,52.767-59.464,82.494c0,0,17.777,38.706,75.406,70.149
			c0,0,2.56-0.56,6.471-3.353c6.098-4.355-0.659-7.544-1.994-8.408c-14.621-9.473-40.167-50.266-40.906-53.806
			c-0.739-3.54,32.019-35.287,41.974-47.025C1368.569,852.135,1352.604,817.774,1337.128,823.821z"/>
		<path style="fill:#FFF2E9;" d="M1405.294,771.61c0,0,5.976,3.621,10.229,3.2c4.212-0.418,6.506-5.497,6.506-5.497
			S1413.857,768.108,1405.294,771.61z"/>
		<path style="fill:#F99746;" d="M1337.128,823.821l-20.07,19.606c0,0,4.583,28.953,34.959,32.733c0,0,24.932-19.96,10.035-40.752
			C1347.156,814.616,1337.128,823.821,1337.128,823.821z"/>
		<path style="fill:#FFB27D;" d="M1365.639,968.756c0,0,0.678-2.916,3.257-4.064c2.579-1.148,4.979-3.653,5.188-2.922
			c0.208,0.729,0.37,1.949-0.964,3.427C1371.787,966.676,1369.514,969.152,1365.639,968.756z"/>
		<path style="fill:#233862;" d="M1388.661,1394.661h-62.238c0,0-1.493-9.485,1.759-16.682c3.115-6.905,7.993-10.044,6.825-18.398
			c3.955,4.072,10.401,8.632,19.398,7.421c1.103,1.787,7.116,11.353,10.799,13.999
			C1369.271,1383.923,1387.407,1382.882,1388.661,1394.661z"/>
	</g>
	<g>
		<g>
			<path style="fill:#233862;" d="M2336.7,1393.692l-1.194-352.23c0,0-2.689-25.385-24.819-25.516
				c-23.612-0.14-25.118,25.218-25.118,25.218s0.326,2.195,2.748,2.21c2.539,0.015,2.971-2.176,2.971-2.176
				s1.161-19.551,19.365-19.441c17.061,0.101,19.135,19.671,19.135,19.671l-2.093,352.211L2336.7,1393.692z"/>
			<path style="fill:#233862;" d="M2324.659,1393.621l14.686,0.088l-1.218-15.366c0,0,0.14-2.133-2.827-2.271
				c-2.758-0.129-8.199-0.555-8.727,1.109C2326.109,1378.645,2324.659,1393.621,2324.659,1393.621z"/>
		</g>
		<path style="fill:#FFB27D;" d="M2310.617,997.279l-1.032,5.032c0,0-24.902-0.243-30.883,26.408c0,0-1.646,11.095,6.374,8.771
			c8.021-2.322,6.809-7.996,18.163-11.032c11.355-3.038,18.755-5.372,20.523-13.613l1.908-9.173L2310.617,997.279z"/>
		<path style="fill:#F99746;" d="M2399.969,779.423c0,0-6.74,25.878-12.563,49.538c-2.345,9.531-4.536,18.698-6.088,25.672
			c-1.581,7.164-2.483,12.015-2.151,12.556c4.892,8.048-4.423,56.887-11.666,74.6c-0.638,1.57-1.518,3.409-2.572,5.451
			c-10.098,19.509-36.9,57.759-36.9,57.759s-7.502,0.74-12.395-1.139c-4.081-1.576-6.848-6.593-6.848-6.593
			c2.399-3.812,12.285-48.94,24.807-74.203c5.357-10.807,13.752-111.317,24.084-124.795
			C2366.293,787.026,2399.969,779.423,2399.969,779.423z"/>
		<path style="fill:#ED7D2B;" d="M2379.166,867.188c4.892,8.048-4.423,56.887-11.666,74.6c-0.638,1.57-1.518,3.409-2.572,5.451
			c-9.287-42.255,6.876-101.94,6.876-101.94c3.938,1.587,7.067,4.857,9.514,9.333
			C2379.736,861.797,2378.834,866.648,2379.166,867.188z"/>
		<path style="fill:#0F2949;" d="M2445.384,1355.54c0,0,2.31,38.207-4.905,38.698c-0.959,0.064-36.58-0.146-36.58-0.146
			l-45.946-0.274c0,0,0.84-11.214,14.145-13.451c13.306-2.237,35.608-11.446,43.764-28.966
			C2424.44,1332.971,2445.384,1355.54,2445.384,1355.54z"/>
		<path style="fill:#163560;" d="M2514.49,1355.951c0,0,2.31,38.206-4.906,38.698c-0.959,0.064-36.579-0.147-36.579-0.147
			l-45.947-0.274c0,0,0.841-11.214,14.146-13.451c13.306-2.237,35.607-11.445,43.764-28.965
			C2493.547,1333.382,2514.49,1355.951,2514.49,1355.951z"/>
		<path style="fill:#2B478B;" d="M2448.106,1263.501c1.036,16.156,3.216,36.937,2.284,55.65
			c-1.306,26.167-2.265,48.235-2.265,48.235c-17.293,5.765-48.914-1.542-48.914-1.542s-10.838-66.212-19.775-119.069
			c-4.009-23.685-7.331-44.172-8.561-53.844c-3.977-31.265,5.604-197.311,5.604-197.311s46.872-29.65,66.074-14.105
			c19.195,15.541,30.98,30.689-1.108,199.517C2439.011,1193.84,2445.789,1227.312,2448.106,1263.501z"/>
		<path style="fill:#233862;" d="M2448.106,1263.501c1.036,16.156,2.964,42.015,2.032,60.729
			c-16.131-17.276-47.908-53.714-70.702-77.454c-4.009-23.685-7.331-44.172-8.561-53.844c-3.977-31.265,5.604-197.311,5.604-197.311
			s46.872-29.65,66.074-14.105c19.195,15.541,30.98,30.689-1.108,199.517C2439.011,1193.84,2445.789,1227.312,2448.106,1263.501z"/>
		<path style="fill:#2B478B;" d="M2418.658,999.25c0,0,3.205,166.294,9.574,197.159c6.369,30.866,39.729,172.19,39.729,172.19
			s32.039,3.11,48.836-3.967c0,0-0.678-65.363-6.135-103.797c-5.097-35.904-14.425-68.759-12.982-81.715
			c19.022-170.792,6.105-184.988-14.23-199.012C2463.112,966.086,2418.658,999.25,2418.658,999.25z"/>
		<path style="fill:#FFB27D;" d="M2481.942,1014.184c0,0-11.239,22.222,10.011,39.381c0,0,9.22,6.388,10.687-1.833
			c1.468-8.221-0.186-5.363,2.116-16.89c2.303-11.526-0.483-23.476-7.092-28.71L2481.942,1014.184z"/>
		<path style="fill:#FFB27D;" d="M2389.932,741.687c0,0,12.705,19.563,10.04,37.732l18.699,45.821l34.538-52.122
			c0,0-17.963-19.788-24.554-46.657L2389.932,741.687z"/>
		<path style="fill:#FFB27D;" d="M2384.211,758.28c0,0,46.673,2.299,47.688-25.723c1.016-28.021,13.743-46.59-21.16-49.26
			c-28.703-2.196-38.32,9.721-40.935,18.992C2367.19,711.56,2366.917,756.676,2384.211,758.28z"/>
		<path style="fill:#F99746;" d="M2497.023,1007.727c-10.035,0.874-23.851,1.948-40.611,2.902
			c-3.349,0.189-6.811,0.379-10.387,0.556c-50.604,2.531-70.663-5.78-70.663-5.78s-1.335-1.092-0.876-7.029
			c2.381-30.58,8.931-39.577,8.181-45.396c-1.683-13.076-32.749-119.894-32.749-119.894s-0.411-33.686,37.145-49.272
			c3.872-1.612,8.138-3.023,12.852-4.188c1.615,4.369,6.068,11.678,17.58,10.404c17.018-1.882,29.186-11.833,34.407-16.945
			c0.94,0.005,1.311,0.037,1.311,0.037c1.249,3.589,2.215,7.331,3.071,11.133c2.994,13.258,4.707,27.196,12.771,37.658
			c7.957,10.329,14.76,20.508,20.557,30.458c4.825,8.281,8.957,16.408,12.484,24.32
			C2534.822,950.184,2508.832,1006.69,2497.023,1007.727z"/>
		<path style="fill:#ED7D2B;" d="M2497.023,1007.727c-10.035,0.874-23.851,1.948-40.611,2.902
			c-4.396-82.37,29.624-161.255,29.624-161.255c1.259,0.893,2.45,1.894,3.575,2.996c5.811,5.712,9.832,14.161,12.484,24.32
			C2511.868,914.088,2503.143,974.697,2497.023,1007.727z"/>
		<path style="fill:#C8D9E8;" d="M2369.32,731.459c0,0-9.303,36.003,6.091,41.172c15.394,5.169,56.36,1.344,56.606-42.86
			c0,0-21.563,12.686-31.824,12.302c-10.262-0.386-16.851-6.347-26.363-1.776C2373.83,740.296,2370.36,740.044,2369.32,731.459z"/>
		<path style="fill:#F99746;" d="M2453.209,773.118c0,0,32.629,0.928,49.736,23.465c13.109,17.269,26.528,109.589,26.445,123.477
			c-0.082,13.889-15.412,90.447-23.789,98.727c0,0-5.398,1.357-12.583-0.075c-7.626-1.521-12.096-5.963-12.096-5.963
			s4.65-85.31,4.698-93.314c0.068-11.589-35.74-82.738-35.74-82.738S2431.292,802.825,2453.209,773.118z"/>
		<path style="fill:#C8D9E8;" d="M2429.944,692.128c-0.769-2.866-4.284-4.39-4.284-4.39c-26.226-11.607-45.51,0.808-45.51,0.808
			c16.244-21.536,55.112-16.764,63.188,2.797c13.187,31.939-11.32,38.428-11.32,38.428s-24.37-10.412-10.146-23.199
			c4.713-4.236,7.002-8.015,7.773-11.31l0,0l0,0C2429.903,694.163,2429.992,693.119,2429.944,692.128z"/>
	</g>
	<g>
		<path style="fill:#233862;" d="M413.468,1394.661c0,0,0-11.496,1.638-15.319c1.639-3.822,7.646-19.387,7.646-19.387h23.484
			c0,0,4.369,14.199,4.642,18.841c0.273,4.643,0,15.865,0,15.865H413.468z"/>
		<path style="fill:#233862;" d="M562.57,1394.661c0,0,0-11.496-1.639-15.319c-1.638-3.822-7.646-19.387-7.646-19.387h-23.483
			c0,0-4.369,14.199-4.642,18.841c-0.273,4.643,0,15.865,0,15.865H562.57z"/>
		<path style="fill:#FFB27D;" d="M468.489,749.385c0,0-0.827,25.6-4.104,37.069l-25.933,18.09l97.62,14.608l-23.282-32.166
			c0,0-7.028-34.324-3.343-47.022C513.136,727.268,468.489,749.385,468.489,749.385z"/>
		<path style="fill:#ED985F;" d="M468.349,752.921c0-0.008,7.718,18.582,22.259,18.173c14.541-0.409,17.851-16.852,17.851-16.852
			L468.349,752.921z"/>
		<path style="fill:#2C3A64;" d="M459.669,737.874c0,0-4.696-23.44-7.973-30.54c-3.277-7.101-6.008-38.775,30.31-40.414
			c0,0,13.927,1.639,21.572-3.004c0,0,0,4.643-1.912,6.281c0,0,12.561-3.004,22.392,7.918c9.831,10.924-6.552,49.152-5.733,58.163
			L459.669,737.874z"/>
		<path style="fill:#FFB27D;" d="M518.868,705.212v25.579c0,4.272-0.982,8.384-2.642,12.16h-0.009
			c-2.871,6.523-7.755,12.064-13.095,15.804c-4.74,3.328-9.834,5.235-14.183,5.159c-3.786-0.076-8.707-1.927-13.476-5.083
			c-6.418-4.254-12.532-10.863-15.136-18.646l-0.038-0.115l-0.096-0.324c-0.753-2.385-1.182-4.863-1.182-7.42v-27.114
			c0-6.343,4.425-11.531,9.833-11.531h40.19C514.443,693.681,518.868,698.869,518.868,705.212z"/>
		<path style="fill:#2C3A64;" d="M459.014,719.69c0,0,0.055-16.29,12.957-18.795c12.902-2.505,41.779,7.94,45.875-3.939
			c4.096-11.878-55.815-11.673-58.832-4.096C455.996,700.438,459.014,719.69,459.014,719.69z"/>
		<path style="fill:#2B478B;" d="M416.41,996.519c0,0,4.109,125.464-2.034,197.05c-6.144,71.587,0.045,171.212,0.045,171.212
			s19.647,10.834,40.947,0c0,0,23.358-138.298,23.21-171.212c-0.158-35.052,25.424-191.58,25.424-191.58L416.41,996.519z"/>
		<path style="fill:#2B478B;" d="M561.722,1364.776c0,0-19.644,10.839-40.943,0c0,0-23.355-138.296-23.208-171.21
			c0.066-14.803-4.456-51.282-9.707-88.473c-7.185-50.88-15.72-103.104-15.72-103.104l90.986-5.684c0,0-7.503,125.681-1.359,197.261
			C567.915,1265.155,561.722,1364.776,561.722,1364.776z"/>
		<path style="fill:#ED7D2B;" d="M442.309,1021.422c-14.762-1.958-25.346-4.03-25.346-4.03s-7.864,0.688-3.22-38.085
			c3.531-29.506,2.425-56.146,1.639-83.557c-0.091-3.047-0.024-6.652,0.164-10.666c2.261,3.621,27.459,44.318,34.241,74.563
			C454.727,981.707,447.28,1007.692,442.309,1021.422z"/>
		<path style="fill:#F99746;" d="M545.977,793.056l0.002,0.055c-11.811-2.973-22.918-4.93-33.187-6.124
			c-9.06,12.034-15.564,14.827-23.847,18.103c-13.328-1.843-24.559-18.26-24.559-18.636c-14.521,1.487-24.311,4.151-28.295,5.389
			c-0.79,0.094-43.379,5.72-103.66,128.425c0,0,3.243,11.297,19.054,30.999c11.248,14.008,28.868,32.275,56.197,53.747
			c0,0,2.58-5.514,4.932-14.436c0,0-16.245-31.611-26.026-53.018c-4.751-10.42-7.978-18.415-7.054-19.185
			c1.761-1.463,21.413-18.524,35.923-31.131c-0.116,3.151-0.148,6.016-0.074,8.505c0.786,27.41,1.893,54.051-1.639,83.557
			c-4.645,38.773,3.22,38.085,3.22,38.085s10.584,2.072,25.346,4.03c13.352,1.786,30.121,3.48,45.555,3.48
			c35.389,0,74.178-7.511,74.178-7.511c11.166,0.14-3.13-69.476-5.219-111.361c-0.483-9.728-0.934-18.604-1.354-26.719
			c13.34,11.585,42.88,37.252,45.059,39.064c0.926,0.77-2.302,8.765-7.053,19.185c-9.781,21.406-26.025,53.018-26.025,53.018
			c2.35,8.922,4.932,14.436,4.932,14.436c27.327-21.472,44.948-39.739,56.195-53.747c15.81-19.702,19.055-30.999,19.055-30.999
			C586.781,796.406,545.977,793.056,545.977,793.056z"/>
		<path style="fill:#233862;" d="M497.57,1193.566c0.066-14.803-4.456-51.282-9.707-88.473
			c5.448-22.217,18.719-43.598,18.719-43.598C523.376,1108.6,497.57,1193.566,497.57,1193.566z"/>
		<path style="fill:#FFB27D;" d="M409.371,992.139c0,0,14.746-13.653,20.753-6.008c6.008,7.646,7.1,19.66,2.458,18.842
			c-4.643-0.82-14.199-5.188-15.564-3.004c-1.366,2.183-7.482,6.36-9.34,3.044C405.822,1001.695,409.371,992.139,409.371,992.139z"
			/>
		<path style="fill:#FFB27D;" d="M412.613,990.58c-2.352,8.92-4.932,14.434-4.932,14.434
			c-27.329-21.472-44.949-39.739-56.197-53.747c8.479-0.631,20.857-3.662,35.103-13.706
			C396.368,958.967,412.613,990.58,412.613,990.58z"/>
		<path style="fill:#FFB27D;" d="M570.686,992.139c0,0-14.746-13.653-20.753-6.008c-6.008,7.646-7.1,19.66-2.458,18.842
			c4.643-0.82,14.199-5.188,15.564-3.004c1.366,2.183,7.483,6.36,9.34,3.044C574.236,1001.695,570.686,992.139,570.686,992.139z"/>
		<path style="fill:#FFB27D;" d="M567.444,990.58c2.353,8.92,4.932,14.434,4.932,14.434c27.328-21.472,44.949-39.739,56.197-53.747
			c-8.479-0.631-20.857-3.662-35.104-13.706C583.688,958.967,567.444,990.58,567.444,990.58z"/>
		<path style="fill:#2C3A64;" d="M503.123,747.481v11.273c-4.74,3.328-9.834,5.235-14.183,5.159
			c-3.786-0.076-8.707-1.927-13.476-5.083v-11.35c0-6.295,5.15-11.444,11.445-11.444h4.768
			C497.973,736.037,503.123,741.187,503.123,747.481z"/>
		<path style="fill:#ED7D2B;" d="M600.526,918.376c-2.188-1.818-31.932-27.664-45.203-39.189c0,0,13.247-9.93,21.438,4.546
			C584.954,898.207,600.526,918.376,600.526,918.376z"/>
		<path style="fill:#2C3A64;" d="M516.218,742.951c-5.408,12.313-18.026,21.125-27.277,20.963
			c-8.889-0.162-24.082-10.176-28.612-23.729l-0.038-0.115l-0.096-0.324c0,0,9.548,8.146,15.862,4.111h26.522
			C502.579,743.857,509.521,747.824,516.218,742.951z"/>
		<path style="fill:#ED7D2B;" d="M647.63,920.268c0,0-3.244,11.297-19.055,30.999C610.275,951.013,647.63,920.268,647.63,920.268z"
			/>
		<path style="fill:#FFB27D;" d="M492.154,746.106h-5.723c-1.31,0-2.98-2.148-2.98-3.458c0,0,1.67-1.312,2.98-1.312h5.723
			c1.311,0,3.227,1.089,3.537,1.868C495.691,743.204,494.896,746.106,492.154,746.106z"/>
	</g>
	<path style="fill:#2E3552;" d="M2690.443,1402.385H139.119c-1.849,0-3.361-1.514-3.361-3.362v-2.405
		c0-1.849,1.513-3.361,3.361-3.361h2551.325c1.85,0,3.362,1.513,3.362,3.361v2.405
		C2693.806,1400.871,2692.293,1402.385,2690.443,1402.385z"/>
</g>
</svg>
